<?xml version="1.0" standalone="no"?>
 <!DOCTYPE svg PUBLIC "-//W3C//DTD SVG 1.1//EN" 
 "http://www.w3.org/Graphics/SVG/1.1/DTD/svg11.dtd"> 
<svg xmlns="http://www.w3.org/2000/svg" version="1.1" 
    width="29.7002cm" height="21.0007cm" viewBox="0 0 116930 82680 ">
<title>SVG Picture created as imxrt1020-board.svg date 2018/08/07 23:35:48 </title>
  <desc>Picture generated by Eeschema-SVG </desc>
<g style="fill:#000000; fill-opacity:1;stroke:#000000; stroke-opacity:1;
stroke-linecap:round; stroke-linejoin:round; "
 transform="translate(0 0) scale(1 1)">
</g>
<g style="fill:#000000; fill-opacity:0.0; 
stroke:#000000; stroke-width:-10; stroke-opacity:1; 
stroke-linecap:round; stroke-linejoin:round;">
</g>
<g style="fill:#840000; fill-opacity:0.0; 
stroke:#840000; stroke-width:-10; stroke-opacity:1; 
stroke-linecap:round; stroke-linejoin:round;">
</g>
<g style="fill:#840000; fill-opacity:0.0; 
stroke:#840000; stroke-width:100; stroke-opacity:1; 
stroke-linecap:round; stroke-linejoin:round;">
</g>
<g style="fill:#840000; fill-opacity:0.0; 
stroke:#840000; stroke-width:60; stroke-opacity:1; 
stroke-linecap:round; stroke-linejoin:round;">
<rect x="69690" y="65360" width="42520" height="12600" rx="0" />
</g>
<g style="fill:#840000; fill-opacity:0.0; 
stroke:#840000; stroke-width:100; stroke-opacity:1; 
stroke-linecap:round; stroke-linejoin:round;">
</g>
<g style="fill:#840000; fill-opacity:0.0; 
stroke:#840000; stroke-width:60; stroke-opacity:1; 
stroke-linecap:round; stroke-linejoin:round;">
<rect x="3940" y="3940" width="109050" height="74800" rx="0" />
</g>
<g style="fill:#840000; fill-opacity:0.0; 
stroke:#840000; stroke-width:100; stroke-opacity:1; 
stroke-linecap:round; stroke-linejoin:round;">
</g>
<g style="fill:#840000; fill-opacity:0.0; 
stroke:#840000; stroke-width:60; stroke-opacity:1; 
stroke-linecap:round; stroke-linejoin:round;">
<rect x="4720" y="4720" width="107490" height="73240" rx="0" />
</g>
<g style="fill:#840000; fill-opacity:0.0; 
stroke:#840000; stroke-width:100; stroke-opacity:1; 
stroke-linecap:round; stroke-linejoin:round;">
</g>
<g style="fill:#840000; fill-opacity:0.0; 
stroke:#840000; stroke-width:60; stroke-opacity:1; 
stroke-linecap:round; stroke-linejoin:round;">
<path d="M23620 4720
L23620 3940
" />
</g>
<g style="fill:#840000; fill-opacity:0.0; 
stroke:#840000; stroke-width:100; stroke-opacity:1; 
stroke-linecap:round; stroke-linejoin:round;">
</g>
<g style="fill:#840000; fill-opacity:0.0; 
stroke:#840000; stroke-width:60; stroke-opacity:1; 
stroke-linecap:round; stroke-linejoin:round;">
<path d="M43310 4720
L43310 3940
" />
</g>
<g style="fill:#840000; fill-opacity:0.0; 
stroke:#840000; stroke-width:100; stroke-opacity:1; 
stroke-linecap:round; stroke-linejoin:round;">
</g>
<g style="fill:#840000; fill-opacity:0.0; 
stroke:#840000; stroke-width:60; stroke-opacity:1; 
stroke-linecap:round; stroke-linejoin:round;">
<path d="M62990 4720
L62990 3940
" />
</g>
<g style="fill:#840000; fill-opacity:0.0; 
stroke:#840000; stroke-width:100; stroke-opacity:1; 
stroke-linecap:round; stroke-linejoin:round;">
</g>
<g style="fill:#840000; fill-opacity:0.0; 
stroke:#840000; stroke-width:60; stroke-opacity:1; 
stroke-linecap:round; stroke-linejoin:round;">
<path d="M82680 4720
L82680 3940
" />
</g>
<g style="fill:#840000; fill-opacity:0.0; 
stroke:#840000; stroke-width:100; stroke-opacity:1; 
stroke-linecap:round; stroke-linejoin:round;">
</g>
<g style="fill:#840000; fill-opacity:0.0; 
stroke:#840000; stroke-width:60; stroke-opacity:1; 
stroke-linecap:round; stroke-linejoin:round;">
<path d="M102360 4720
L102360 3940
" />
</g>
<g style="fill:#840000; fill-opacity:0.0; 
stroke:#840000; stroke-width:100; stroke-opacity:1; 
stroke-linecap:round; stroke-linejoin:round;">
</g>
<g style="fill:#840000; fill-opacity:0.0; 
stroke:#840000; stroke-width:60; stroke-opacity:1; 
stroke-linecap:round; stroke-linejoin:round;">
<path d="M14170 4560
L13880 4560
" />
<path d="M14020 4560
L14020 4050
L13970 4120
L13930 4170
L13880 4190
" />
</g>
<g style="fill:#840000; fill-opacity:0.0; 
stroke:#840000; stroke-width:100; stroke-opacity:1; 
stroke-linecap:round; stroke-linejoin:round;">
</g>
<g style="fill:#840000; fill-opacity:0.0; 
stroke:#840000; stroke-width:60; stroke-opacity:1; 
stroke-linecap:round; stroke-linejoin:round;">
<path d="M33560 4090
L33580 4070
L33630 4050
L33750 4050
L33800 4070
L33820 4090
L33850 4140
L33850 4190
L33820 4260
L33530 4560
L33850 4560
" />
</g>
<g style="fill:#840000; fill-opacity:0.0; 
stroke:#840000; stroke-width:100; stroke-opacity:1; 
stroke-linecap:round; stroke-linejoin:round;">
</g>
<g style="fill:#840000; fill-opacity:0.0; 
stroke:#840000; stroke-width:60; stroke-opacity:1; 
stroke-linecap:round; stroke-linejoin:round;">
<path d="M53220 4050
L53540 4050
L53370 4240
L53440 4240
L53490 4260
L53510 4290
L53540 4340
L53540 4460
L53510 4510
L53490 4530
L53440 4560
L53300 4560
L53250 4530
L53220 4510
" />
</g>
<g style="fill:#840000; fill-opacity:0.0; 
stroke:#840000; stroke-width:100; stroke-opacity:1; 
stroke-linecap:round; stroke-linejoin:round;">
</g>
<g style="fill:#840000; fill-opacity:0.0; 
stroke:#840000; stroke-width:60; stroke-opacity:1; 
stroke-linecap:round; stroke-linejoin:round;">
<path d="M73170 4220
L73170 4560
" />
<path d="M73050 4020
L72930 4390
L73240 4390
" />
</g>
<g style="fill:#840000; fill-opacity:0.0; 
stroke:#840000; stroke-width:100; stroke-opacity:1; 
stroke-linecap:round; stroke-linejoin:round;">
</g>
<g style="fill:#840000; fill-opacity:0.0; 
stroke:#840000; stroke-width:60; stroke-opacity:1; 
stroke-linecap:round; stroke-linejoin:round;">
<path d="M92880 4050
L92640 4050
L92620 4290
L92640 4260
L92690 4240
L92810 4240
L92860 4260
L92880 4290
L92910 4340
L92910 4460
L92880 4510
L92860 4530
L92810 4560
L92690 4560
L92640 4530
L92620 4510
" />
</g>
<g style="fill:#840000; fill-opacity:0.0; 
stroke:#840000; stroke-width:100; stroke-opacity:1; 
stroke-linecap:round; stroke-linejoin:round;">
</g>
<g style="fill:#840000; fill-opacity:0.0; 
stroke:#840000; stroke-width:60; stroke-opacity:1; 
stroke-linecap:round; stroke-linejoin:round;">
<path d="M112540 4050
L112440 4050
L112390 4070
L112370 4090
L112320 4170
L112300 4260
L112300 4460
L112320 4510
L112350 4530
L112390 4560
L112490 4560
L112540 4530
L112560 4510
L112590 4460
L112590 4340
L112560 4290
L112540 4260
L112490 4240
L112390 4240
L112350 4260
L112320 4290
L112300 4340
" />
</g>
<g style="fill:#840000; fill-opacity:0.0; 
stroke:#840000; stroke-width:100; stroke-opacity:1; 
stroke-linecap:round; stroke-linejoin:round;">
</g>
<g style="fill:#840000; fill-opacity:0.0; 
stroke:#840000; stroke-width:60; stroke-opacity:1; 
stroke-linecap:round; stroke-linejoin:round;">
<path d="M23620 77960
L23620 78740
" />
</g>
<g style="fill:#840000; fill-opacity:0.0; 
stroke:#840000; stroke-width:100; stroke-opacity:1; 
stroke-linecap:round; stroke-linejoin:round;">
</g>
<g style="fill:#840000; fill-opacity:0.0; 
stroke:#840000; stroke-width:60; stroke-opacity:1; 
stroke-linecap:round; stroke-linejoin:round;">
<path d="M43310 77960
L43310 78740
" />
</g>
<g style="fill:#840000; fill-opacity:0.0; 
stroke:#840000; stroke-width:100; stroke-opacity:1; 
stroke-linecap:round; stroke-linejoin:round;">
</g>
<g style="fill:#840000; fill-opacity:0.0; 
stroke:#840000; stroke-width:60; stroke-opacity:1; 
stroke-linecap:round; stroke-linejoin:round;">
<path d="M62990 77960
L62990 78740
" />
</g>
<g style="fill:#840000; fill-opacity:0.0; 
stroke:#840000; stroke-width:100; stroke-opacity:1; 
stroke-linecap:round; stroke-linejoin:round;">
</g>
<g style="fill:#840000; fill-opacity:0.0; 
stroke:#840000; stroke-width:60; stroke-opacity:1; 
stroke-linecap:round; stroke-linejoin:round;">
<path d="M82680 77960
L82680 78740
" />
</g>
<g style="fill:#840000; fill-opacity:0.0; 
stroke:#840000; stroke-width:100; stroke-opacity:1; 
stroke-linecap:round; stroke-linejoin:round;">
</g>
<g style="fill:#840000; fill-opacity:0.0; 
stroke:#840000; stroke-width:60; stroke-opacity:1; 
stroke-linecap:round; stroke-linejoin:round;">
<path d="M102360 77960
L102360 78740
" />
</g>
<g style="fill:#840000; fill-opacity:0.0; 
stroke:#840000; stroke-width:100; stroke-opacity:1; 
stroke-linecap:round; stroke-linejoin:round;">
</g>
<g style="fill:#840000; fill-opacity:0.0; 
stroke:#840000; stroke-width:60; stroke-opacity:1; 
stroke-linecap:round; stroke-linejoin:round;">
<path d="M14170 78580
L13880 78580
" />
<path d="M14020 78580
L14020 78070
L13970 78140
L13930 78190
L13880 78210
" />
</g>
<g style="fill:#840000; fill-opacity:0.0; 
stroke:#840000; stroke-width:100; stroke-opacity:1; 
stroke-linecap:round; stroke-linejoin:round;">
</g>
<g style="fill:#840000; fill-opacity:0.0; 
stroke:#840000; stroke-width:60; stroke-opacity:1; 
stroke-linecap:round; stroke-linejoin:round;">
<path d="M33560 78110
L33580 78090
L33630 78070
L33750 78070
L33800 78090
L33820 78110
L33850 78160
L33850 78210
L33820 78280
L33530 78580
L33850 78580
" />
</g>
<g style="fill:#840000; fill-opacity:0.0; 
stroke:#840000; stroke-width:100; stroke-opacity:1; 
stroke-linecap:round; stroke-linejoin:round;">
</g>
<g style="fill:#840000; fill-opacity:0.0; 
stroke:#840000; stroke-width:60; stroke-opacity:1; 
stroke-linecap:round; stroke-linejoin:round;">
<path d="M53220 78070
L53540 78070
L53370 78260
L53440 78260
L53490 78280
L53510 78310
L53540 78360
L53540 78480
L53510 78530
L53490 78550
L53440 78580
L53300 78580
L53250 78550
L53220 78530
" />
</g>
<g style="fill:#840000; fill-opacity:0.0; 
stroke:#840000; stroke-width:100; stroke-opacity:1; 
stroke-linecap:round; stroke-linejoin:round;">
</g>
<g style="fill:#840000; fill-opacity:0.0; 
stroke:#840000; stroke-width:60; stroke-opacity:1; 
stroke-linecap:round; stroke-linejoin:round;">
<path d="M73170 78240
L73170 78580
" />
<path d="M73050 78040
L72930 78410
L73240 78410
" />
</g>
<g style="fill:#840000; fill-opacity:0.0; 
stroke:#840000; stroke-width:100; stroke-opacity:1; 
stroke-linecap:round; stroke-linejoin:round;">
</g>
<g style="fill:#840000; fill-opacity:0.0; 
stroke:#840000; stroke-width:60; stroke-opacity:1; 
stroke-linecap:round; stroke-linejoin:round;">
<path d="M92880 78070
L92640 78070
L92620 78310
L92640 78280
L92690 78260
L92810 78260
L92860 78280
L92880 78310
L92910 78360
L92910 78480
L92880 78530
L92860 78550
L92810 78580
L92690 78580
L92640 78550
L92620 78530
" />
</g>
<g style="fill:#840000; fill-opacity:0.0; 
stroke:#840000; stroke-width:100; stroke-opacity:1; 
stroke-linecap:round; stroke-linejoin:round;">
</g>
<g style="fill:#840000; fill-opacity:0.0; 
stroke:#840000; stroke-width:60; stroke-opacity:1; 
stroke-linecap:round; stroke-linejoin:round;">
<path d="M112540 78070
L112440 78070
L112390 78090
L112370 78110
L112320 78190
L112300 78280
L112300 78480
L112320 78530
L112350 78550
L112390 78580
L112490 78580
L112540 78550
L112560 78530
L112590 78480
L112590 78360
L112560 78310
L112540 78280
L112490 78260
L112390 78260
L112350 78280
L112320 78310
L112300 78360
" />
</g>
<g style="fill:#840000; fill-opacity:0.0; 
stroke:#840000; stroke-width:100; stroke-opacity:1; 
stroke-linecap:round; stroke-linejoin:round;">
</g>
<g style="fill:#840000; fill-opacity:0.0; 
stroke:#840000; stroke-width:60; stroke-opacity:1; 
stroke-linecap:round; stroke-linejoin:round;">
<path d="M3940 23620
L4720 23620
" />
</g>
<g style="fill:#840000; fill-opacity:0.0; 
stroke:#840000; stroke-width:100; stroke-opacity:1; 
stroke-linecap:round; stroke-linejoin:round;">
</g>
<g style="fill:#840000; fill-opacity:0.0; 
stroke:#840000; stroke-width:60; stroke-opacity:1; 
stroke-linecap:round; stroke-linejoin:round;">
<path d="M3940 43310
L4720 43310
" />
</g>
<g style="fill:#840000; fill-opacity:0.0; 
stroke:#840000; stroke-width:100; stroke-opacity:1; 
stroke-linecap:round; stroke-linejoin:round;">
</g>
<g style="fill:#840000; fill-opacity:0.0; 
stroke:#840000; stroke-width:60; stroke-opacity:1; 
stroke-linecap:round; stroke-linejoin:round;">
<path d="M3940 62990
L4720 62990
" />
</g>
<g style="fill:#840000; fill-opacity:0.0; 
stroke:#840000; stroke-width:100; stroke-opacity:1; 
stroke-linecap:round; stroke-linejoin:round;">
</g>
<g style="fill:#840000; fill-opacity:0.0; 
stroke:#840000; stroke-width:60; stroke-opacity:1; 
stroke-linecap:round; stroke-linejoin:round;">
<path d="M4210 13860
L4450 13860
" />
<path d="M4160 14010
L4330 13500
L4500 14010
" />
</g>
<g style="fill:#840000; fill-opacity:0.0; 
stroke:#840000; stroke-width:100; stroke-opacity:1; 
stroke-linecap:round; stroke-linejoin:round;">
</g>
<g style="fill:#840000; fill-opacity:0.0; 
stroke:#840000; stroke-width:60; stroke-opacity:1; 
stroke-linecap:round; stroke-linejoin:round;">
<path d="M4370 33420
L4440 33440
L4470 33470
L4490 33520
L4490 33590
L4470 33640
L4440 33660
L4400 33690
L4200 33690
L4200 33180
L4370 33180
L4420 33200
L4440 33220
L4470 33270
L4470 33320
L4440 33370
L4420 33390
L4370 33420
L4200 33420
" />
</g>
<g style="fill:#840000; fill-opacity:0.0; 
stroke:#840000; stroke-width:100; stroke-opacity:1; 
stroke-linecap:round; stroke-linejoin:round;">
</g>
<g style="fill:#840000; fill-opacity:0.0; 
stroke:#840000; stroke-width:60; stroke-opacity:1; 
stroke-linecap:round; stroke-linejoin:round;">
<path d="M4490 53330
L4470 53350
L4400 53380
L4350 53380
L4270 53350
L4230 53300
L4200 53250
L4180 53160
L4180 53080
L4200 52990
L4230 52940
L4270 52890
L4350 52870
L4400 52870
L4470 52890
L4490 52910
" />
</g>
<g style="fill:#840000; fill-opacity:0.0; 
stroke:#840000; stroke-width:100; stroke-opacity:1; 
stroke-linecap:round; stroke-linejoin:round;">
</g>
<g style="fill:#840000; fill-opacity:0.0; 
stroke:#840000; stroke-width:60; stroke-opacity:1; 
stroke-linecap:round; stroke-linejoin:round;">
<path d="M4200 73060
L4200 72550
L4320 72550
L4400 72570
L4440 72620
L4470 72670
L4490 72760
L4490 72840
L4470 72930
L4440 72980
L4400 73030
L4320 73060
L4200 73060
" />
</g>
<g style="fill:#840000; fill-opacity:0.0; 
stroke:#840000; stroke-width:100; stroke-opacity:1; 
stroke-linecap:round; stroke-linejoin:round;">
</g>
<g style="fill:#840000; fill-opacity:0.0; 
stroke:#840000; stroke-width:60; stroke-opacity:1; 
stroke-linecap:round; stroke-linejoin:round;">
<path d="M112990 23620
L112210 23620
" />
</g>
<g style="fill:#840000; fill-opacity:0.0; 
stroke:#840000; stroke-width:100; stroke-opacity:1; 
stroke-linecap:round; stroke-linejoin:round;">
</g>
<g style="fill:#840000; fill-opacity:0.0; 
stroke:#840000; stroke-width:60; stroke-opacity:1; 
stroke-linecap:round; stroke-linejoin:round;">
<path d="M112990 43310
L112210 43310
" />
</g>
<g style="fill:#840000; fill-opacity:0.0; 
stroke:#840000; stroke-width:100; stroke-opacity:1; 
stroke-linecap:round; stroke-linejoin:round;">
</g>
<g style="fill:#840000; fill-opacity:0.0; 
stroke:#840000; stroke-width:60; stroke-opacity:1; 
stroke-linecap:round; stroke-linejoin:round;">
<path d="M112990 62990
L112210 62990
" />
</g>
<g style="fill:#840000; fill-opacity:0.0; 
stroke:#840000; stroke-width:100; stroke-opacity:1; 
stroke-linecap:round; stroke-linejoin:round;">
</g>
<g style="fill:#840000; fill-opacity:0.0; 
stroke:#840000; stroke-width:60; stroke-opacity:1; 
stroke-linecap:round; stroke-linejoin:round;">
<path d="M112480 13860
L112720 13860
" />
<path d="M112430 14010
L112600 13500
L112770 14010
" />
</g>
<g style="fill:#840000; fill-opacity:0.0; 
stroke:#840000; stroke-width:100; stroke-opacity:1; 
stroke-linecap:round; stroke-linejoin:round;">
</g>
<g style="fill:#840000; fill-opacity:0.0; 
stroke:#840000; stroke-width:60; stroke-opacity:1; 
stroke-linecap:round; stroke-linejoin:round;">
<path d="M112640 33420
L112710 33440
L112740 33470
L112760 33520
L112760 33590
L112740 33640
L112710 33660
L112670 33690
L112470 33690
L112470 33180
L112640 33180
L112690 33200
L112710 33220
L112740 33270
L112740 33320
L112710 33370
L112690 33390
L112640 33420
L112470 33420
" />
</g>
<g style="fill:#840000; fill-opacity:0.0; 
stroke:#840000; stroke-width:100; stroke-opacity:1; 
stroke-linecap:round; stroke-linejoin:round;">
</g>
<g style="fill:#840000; fill-opacity:0.0; 
stroke:#840000; stroke-width:60; stroke-opacity:1; 
stroke-linecap:round; stroke-linejoin:round;">
<path d="M112760 53330
L112740 53350
L112670 53380
L112620 53380
L112540 53350
L112500 53300
L112470 53250
L112450 53160
L112450 53080
L112470 52990
L112500 52940
L112540 52890
L112620 52870
L112670 52870
L112740 52890
L112760 52910
" />
</g>
<g style="fill:#840000; fill-opacity:0.0; 
stroke:#840000; stroke-width:100; stroke-opacity:1; 
stroke-linecap:round; stroke-linejoin:round;">
</g>
<g style="fill:#840000; fill-opacity:0.0; 
stroke:#840000; stroke-width:60; stroke-opacity:1; 
stroke-linecap:round; stroke-linejoin:round;">
<path d="M112470 73060
L112470 72550
L112590 72550
L112670 72570
L112710 72620
L112740 72670
L112760 72760
L112760 72840
L112740 72930
L112710 72980
L112670 73030
L112590 73060
L112470 73060
" />
</g>
<g style="fill:#840000; fill-opacity:0.0; 
stroke:#840000; stroke-width:100; stroke-opacity:1; 
stroke-linecap:round; stroke-linejoin:round;">
</g>
<g style="fill:#840000; fill-opacity:0.0; 
stroke:#840000; stroke-width:60; stroke-opacity:1; 
stroke-linecap:round; stroke-linejoin:round;">
<path d="M78880 76290
L78880 75700
L79020 75700
L79110 75730
L79160 75790
L79190 75840
L79220 75950
L79220 76040
L79190 76150
L79160 76210
L79110 76260
L79020 76290
L78880 76290
" />
<path d="M79720 76290
L79720 75980
L79700 75930
L79640 75900
L79530 75900
L79470 75930
" />
<path d="M79720 76260
L79670 76290
L79530 76290
L79470 76260
L79440 76210
L79440 76150
L79470 76100
L79530 76070
L79670 76070
L79720 76040
" />
<path d="M79920 75900
L80140 75900
" />
<path d="M80000 75700
L80000 76210
L80030 76260
L80080 76290
L80140 76290
" />
<path d="M80570 76260
L80510 76290
L80400 76290
L80340 76260
L80310 76210
L80310 75980
L80340 75930
L80400 75900
L80510 75900
L80570 75930
L80590 75980
L80590 76040
L80310 76100
" />
<path d="M80850 76240
L80880 76260
L80850 76290
L80820 76260
L80850 76240
L80850 76290
" />
<path d="M80850 75930
L80880 75950
L80850 75980
L80820 75950
L80850 75930
L80850 75980
" />
<path d="M81550 75760
L81580 75730
L81640 75700
L81780 75700
L81830 75730
L81860 75760
L81890 75810
L81890 75870
L81860 75950
L81520 76290
L81890 76290
" />
<path d="M82250 75700
L82310 75700
L82370 75730
L82390 75760
L82420 75810
L82450 75930
L82450 76070
L82420 76180
L82390 76240
L82370 76260
L82310 76290
L82250 76290
L82200 76260
L82170 76240
L82140 76180
L82110 76070
L82110 75930
L82140 75810
L82170 75760
L82200 75730
L82250 75700
" />
<path d="M83010 76290
L82670 76290
" />
<path d="M82840 76290
L82840 75700
L82780 75790
L82730 75840
L82670 75870
" />
<path d="M83340 75950
L83290 75930
L83260 75900
L83230 75840
L83230 75810
L83260 75760
L83290 75730
L83340 75700
L83460 75700
L83510 75730
L83540 75760
L83570 75810
L83570 75840
L83540 75900
L83510 75930
L83460 75950
L83340 75950
L83290 75980
L83260 76010
L83230 76070
L83230 76180
L83260 76240
L83290 76260
L83340 76290
L83460 76290
L83510 76260
L83540 76240
L83570 76180
L83570 76070
L83540 76010
L83510 75980
L83460 75950
" />
<path d="M83820 76070
L84270 76070
" />
<path d="M84660 75700
L84720 75700
L84780 75730
L84800 75760
L84830 75810
L84860 75930
L84860 76070
L84830 76180
L84800 76240
L84780 76260
L84720 76290
L84660 76290
L84610 76260
L84580 76240
L84550 76180
L84520 76070
L84520 75930
L84550 75810
L84580 75760
L84610 75730
L84660 75700
" />
<path d="M85050 75700
L85450 75700
L85190 76290
" />
<path d="M85670 76070
L86120 76070
" />
<path d="M86510 75700
L86570 75700
L86630 75730
L86650 75760
L86680 75810
L86710 75930
L86710 76070
L86680 76180
L86650 76240
L86630 76260
L86570 76290
L86510 76290
L86460 76260
L86430 76240
L86400 76180
L86370 76070
L86370 75930
L86400 75810
L86430 75760
L86460 75730
L86510 75700
" />
<path d="M86900 75700
L87300 75700
L87040 76290
" />
</g>
<g style="fill:#840000; fill-opacity:0.0; 
stroke:#840000; stroke-width:100; stroke-opacity:1; 
stroke-linecap:round; stroke-linejoin:round;">
</g>
<g style="fill:#840000; fill-opacity:0.0; 
stroke:#840000; stroke-width:60; stroke-opacity:1; 
stroke-linecap:round; stroke-linejoin:round;">
<path d="M69690 76580
L112210 76580
" />
</g>
<g style="fill:#840000; fill-opacity:0.0; 
stroke:#840000; stroke-width:100; stroke-opacity:1; 
stroke-linecap:round; stroke-linejoin:round;">
</g>
<g style="fill:#840000; fill-opacity:0.0; 
stroke:#840000; stroke-width:60; stroke-opacity:1; 
stroke-linecap:round; stroke-linejoin:round;">
<path d="M70220 77390
L70220 76800
" />
<path d="M70560 77390
L70300 77050
" />
<path d="M70560 76800
L70220 77140
" />
<path d="M70810 77390
L70810 77000
" />
<path d="M70810 76800
L70780 76830
L70810 76860
L70840 76830
L70810 76800
L70810 76860
" />
<path d="M71430 77340
L71400 77360
L71320 77390
L71260 77390
L71170 77360
L71120 77310
L71090 77250
L71060 77140
L71060 77050
L71090 76940
L71120 76890
L71170 76830
L71260 76800
L71320 76800
L71400 76830
L71430 76860
" />
<path d="M71930 77390
L71930 77080
L71910 77030
L71850 77000
L71740 77000
L71680 77030
" />
<path d="M71930 77360
L71880 77390
L71740 77390
L71680 77360
L71650 77310
L71650 77250
L71680 77200
L71740 77170
L71880 77170
L71930 77140
" />
<path d="M72460 77390
L72460 76800
" />
<path d="M72460 77360
L72410 77390
L72290 77390
L72240 77360
L72210 77340
L72180 77280
L72180 77110
L72210 77050
L72240 77030
L72290 77000
L72410 77000
L72460 77030
" />
<path d="M73190 77080
L73390 77080
" />
<path d="M73470 77390
L73190 77390
L73190 76800
L73470 76800
" />
<path d="M73720 77340
L73750 77360
L73720 77390
L73690 77360
L73720 77340
L73720 77390
" />
<path d="M74000 77390
L74000 76800
L74140 76800
L74230 76830
L74280 76890
L74310 76940
L74340 77050
L74340 77140
L74310 77250
L74280 77310
L74230 77360
L74140 77390
L74000 77390
" />
<path d="M74590 77340
L74620 77360
L74590 77390
L74560 77360
L74590 77340
L74590 77390
" />
<path d="M74840 77220
L75120 77220
" />
<path d="M74790 77390
L74980 76800
L75180 77390
" />
<path d="M75380 77340
L75410 77360
L75380 77390
L75350 77360
L75380 77340
L75380 77390
" />
<path d="M76560 77390
L76560 76800
" />
<path d="M76620 77170
L76790 77390
" />
<path d="M76790 77000
L76560 77220
" />
<path d="M77040 77390
L77040 77000
" />
<path d="M77040 76800
L77010 76830
L77040 76860
L77070 76830
L77040 76800
L77040 76860
" />
<path d="M77570 77360
L77520 77390
L77400 77390
L77350 77360
L77320 77340
L77290 77280
L77290 77110
L77320 77050
L77350 77030
L77400 77000
L77520 77000
L77570 77030
" />
<path d="M78080 77390
L78080 77080
L78060 77030
L78000 77000
L77890 77000
L77830 77030
" />
<path d="M78080 77360
L78030 77390
L77890 77390
L77830 77360
L77800 77310
L77800 77250
L77830 77200
L77890 77170
L78030 77170
L78080 77140
" />
<path d="M78610 77390
L78610 76800
" />
<path d="M78610 77360
L78560 77390
L78440 77390
L78390 77360
L78360 77340
L78330 77280
L78330 77110
L78360 77050
L78390 77030
L78440 77000
L78560 77000
L78610 77030
" />
<path d="M79590 77000
L79590 77390
" />
<path d="M79450 76770
L79310 77200
L79680 77200
" />
<path d="M79900 77340
L79930 77360
L79900 77390
L79870 77360
L79900 77340
L79900 77390
" />
<path d="M80290 76800
L80350 76800
L80410 76830
L80430 76860
L80460 76910
L80490 77030
L80490 77170
L80460 77280
L80430 77340
L80410 77360
L80350 77390
L80290 77390
L80240 77360
L80210 77340
L80180 77280
L80150 77170
L80150 77030
L80180 76910
L80210 76860
L80240 76830
L80290 76800
" />
<path d="M80740 77340
L80770 77360
L80740 77390
L80710 77360
L80740 77340
L80740 77390
" />
<path d="M80960 76800
L81360 76800
L81100 77390
" />
<path d="M81580 77170
L82030 77170
" />
<path d="M82540 77360
L82480 77390
L82370 77390
L82310 77360
L82280 77310
L82280 77080
L82310 77030
L82370 77000
L82480 77000
L82540 77030
L82560 77080
L82560 77140
L82280 77200
" />
<path d="M82790 76860
L82820 76830
L82880 76800
L83020 76800
L83070 76830
L83100 76860
L83130 76910
L83130 76970
L83100 77050
L82760 77390
L83130 77390
" />
<path d="M83380 77170
L83830 77170
" />
<path d="M84360 76800
L84250 76800
L84190 76830
L84170 76860
L84110 76940
L84080 77050
L84080 77280
L84110 77340
L84140 77360
L84190 77390
L84310 77390
L84360 77360
L84390 77340
L84420 77280
L84420 77140
L84390 77080
L84360 77050
L84310 77030
L84190 77030
L84140 77050
L84110 77080
L84080 77140
" />
<path d="M84610 76800
L84980 76800
L84780 77030
L84870 77030
L84920 77050
L84950 77080
L84980 77140
L84980 77280
L84950 77340
L84920 77360
L84870 77390
L84700 77390
L84640 77360
L84610 77340
" />
<path d="M85170 76800
L85570 76800
L85310 77390
" />
<path d="M86040 76800
L85930 76800
L85870 76830
L85850 76860
L85790 76940
L85760 77050
L85760 77280
L85790 77340
L85820 77360
L85870 77390
L85990 77390
L86040 77360
L86070 77340
L86100 77280
L86100 77140
L86070 77080
L86040 77050
L85990 77030
L85870 77030
L85820 77050
L85790 77080
L85760 77140
" />
<path d="M86630 76800
L86350 76800
L86320 77080
L86350 77050
L86410 77030
L86550 77030
L86600 77050
L86630 77080
L86660 77140
L86660 77280
L86630 77340
L86600 77360
L86550 77390
L86410 77390
L86350 77360
L86320 77340
" />
<path d="M86990 77050
L86940 77030
L86910 77000
L86880 76940
L86880 76910
L86910 76860
L86940 76830
L86990 76800
L87110 76800
L87160 76830
L87190 76860
L87220 76910
L87220 76940
L87190 77000
L87160 77030
L87110 77050
L86990 77050
L86940 77080
L86910 77110
L86880 77170
L86880 77280
L86910 77340
L86940 77360
L86990 77390
L87110 77390
L87160 77360
L87190 77340
L87220 77280
L87220 77170
L87190 77110
L87160 77080
L87110 77050
" />
<path d="M86210 76700
L87330 76700
" />
<path d="M87720 77000
L87720 77390
" />
<path d="M87470 77000
L87470 77310
L87500 77360
L87550 77390
L87640 77390
L87700 77360
L87720 77340
" />
<path d="M88000 77390
L88000 76800
" />
<path d="M88000 77030
L88060 77000
L88170 77000
L88230 77030
L88250 77050
L88280 77110
L88280 77280
L88250 77340
L88230 77360
L88170 77390
L88060 77390
L88000 77360
" />
<path d="M88780 77000
L88780 77390
" />
<path d="M88530 77000
L88530 77310
L88560 77360
L88610 77390
L88700 77390
L88760 77360
L88780 77340
" />
<path d="M89060 77000
L89060 77390
" />
<path d="M89060 77050
L89090 77030
L89140 77000
L89230 77000
L89290 77030
L89310 77080
L89310 77390
" />
<path d="M89510 77000
L89730 77000
" />
<path d="M89590 76800
L89590 77310
L89620 77360
L89670 77390
L89730 77390
" />
<path d="M90180 77000
L90180 77390
" />
<path d="M89930 77000
L89930 77310
L89960 77360
L90010 77390
L90100 77390
L90160 77360
L90180 77340
" />
<path d="M90770 77390
L90430 77390
" />
<path d="M90600 77390
L90600 76800
L90540 76890
L90490 76940
L90430 76970
" />
<path d="M91270 76800
L91160 76800
L91100 76830
L91080 76860
L91020 76940
L90990 77050
L90990 77280
L91020 77340
L91050 77360
L91100 77390
L91220 77390
L91270 77360
L91300 77340
L91330 77280
L91330 77140
L91300 77080
L91270 77050
L91220 77030
L91100 77030
L91050 77050
L91020 77080
L90990 77140
" />
<path d="M91580 77340
L91610 77360
L91580 77390
L91550 77360
L91580 77340
L91580 77390
" />
<path d="M91970 76800
L92030 76800
L92090 76830
L92110 76860
L92140 76910
L92170 77030
L92170 77170
L92140 77280
L92110 77340
L92090 77360
L92030 77390
L91970 77390
L91920 77360
L91890 77340
L91860 77280
L91830 77170
L91830 77030
L91860 76910
L91890 76860
L91920 76830
L91970 76800
" />
<path d="M92670 77000
L92670 77390
" />
<path d="M92530 76770
L92390 77200
L92760 77200
" />
<path d="M92980 77340
L93010 77360
L92980 77390
L92950 77360
L92980 77340
L92980 77390
" />
<path d="M93570 77390
L93230 77390
" />
<path d="M93400 77390
L93400 76800
L93340 76890
L93290 76940
L93230 76970
" />
</g>
<g style="fill:#840000; fill-opacity:0.0; 
stroke:#840000; stroke-width:100; stroke-opacity:1; 
stroke-linecap:round; stroke-linejoin:round;">
</g>
<g style="fill:#840000; fill-opacity:0.0; 
stroke:#840000; stroke-width:60; stroke-opacity:1; 
stroke-linecap:round; stroke-linejoin:round;">
<path d="M69690 75400
L112210 75400
" />
</g>
<g style="fill:#840000; fill-opacity:0.0; 
stroke:#840000; stroke-width:100; stroke-opacity:1; 
stroke-linecap:round; stroke-linejoin:round;">
</g>
<g style="fill:#840000; fill-opacity:0.0; 
stroke:#840000; stroke-width:120; stroke-opacity:1; 
stroke-linecap:round; stroke-linejoin:round;">
<path d="M104020 76290
L103820 76010
" />
<path d="M103680 76290
L103680 75700
L103910 75700
L103960 75730
L103990 75760
L104020 75810
L104020 75900
L103990 75950
L103960 75980
L103910 76010
L103680 76010
" />
<path d="M104500 76260
L104440 76290
L104330 76290
L104270 76260
L104240 76210
L104240 75980
L104270 75930
L104330 75900
L104440 75900
L104500 75930
L104520 75980
L104520 76040
L104240 76100
" />
<path d="M104720 75900
L104860 76290
L105010 75900
" />
<path d="M105230 76240
L105260 76260
L105230 76290
L105200 76260
L105230 76240
L105230 76290
" />
<path d="M105230 75930
L105260 75950
L105230 75980
L105200 75950
L105230 75930
L105230 75980
" />
<path d="M106070 75700
L106130 75700
L106190 75730
L106210 75760
L106240 75810
L106270 75930
L106270 76070
L106240 76180
L106210 76240
L106190 76260
L106130 76290
L106070 76290
L106020 76260
L105990 76240
L105960 76180
L105930 76070
L105930 75930
L105960 75810
L105990 75760
L106020 75730
L106070 75700
" />
<path d="M106520 76240
L106550 76260
L106520 76290
L106490 76260
L106520 76240
L106520 76290
" />
<path d="M107110 76290
L106770 76290
" />
<path d="M106940 76290
L106940 75700
L106880 75790
L106830 75840
L106770 75870
" />
</g>
<g style="fill:#840000; fill-opacity:0.0; 
stroke:#840000; stroke-width:100; stroke-opacity:1; 
stroke-linecap:round; stroke-linejoin:round;">
</g>
<g style="fill:#840000; fill-opacity:0.0; 
stroke:#840000; stroke-width:60; stroke-opacity:1; 
stroke-linecap:round; stroke-linejoin:round;">
<path d="M70190 76260
L70280 76290
L70420 76290
L70470 76260
L70500 76240
L70530 76180
L70530 76120
L70500 76070
L70470 76040
L70420 76010
L70300 75980
L70250 75950
L70220 75930
L70190 75870
L70190 75810
L70220 75760
L70250 75730
L70300 75700
L70450 75700
L70530 75730
" />
<path d="M70780 76290
L70780 75900
" />
<path d="M70780 75700
L70750 75730
L70780 75760
L70810 75730
L70780 75700
L70780 75760
" />
<path d="M71000 75900
L71310 75900
L71000 76290
L71310 76290
" />
<path d="M71770 76260
L71710 76290
L71600 76290
L71540 76260
L71510 76210
L71510 75980
L71540 75930
L71600 75900
L71710 75900
L71770 75930
L71790 75980
L71790 76040
L71510 76100
" />
<path d="M72050 76240
L72080 76260
L72050 76290
L72020 76260
L72050 76240
L72050 76290
" />
<path d="M72050 75930
L72080 75950
L72050 75980
L72020 75950
L72050 75930
L72050 75980
" />
<path d="M72750 76120
L73030 76120
" />
<path d="M72700 76290
L72890 75700
L73090 76290
" />
<path d="M73540 75900
L73540 76290
" />
<path d="M73400 75670
L73260 76100
L73630 76100
" />
</g>
<g style="fill:#840000; fill-opacity:0.0; 
stroke:#840000; stroke-width:100; stroke-opacity:1; 
stroke-linecap:round; stroke-linejoin:round;">
</g>
<g style="fill:#840000; fill-opacity:0.0; 
stroke:#840000; stroke-width:60; stroke-opacity:1; 
stroke-linecap:round; stroke-linejoin:round;">
<path d="M103680 77390
L103680 76800
" />
<path d="M104210 77390
L104210 76800
" />
<path d="M104210 77360
L104160 77390
L104040 77390
L103990 77360
L103960 77340
L103930 77280
L103930 77110
L103960 77050
L103990 77030
L104040 77000
L104160 77000
L104210 77030
" />
<path d="M104490 77340
L104520 77360
L104490 77390
L104460 77360
L104490 77340
L104490 77390
" />
<path d="M104490 77030
L104520 77050
L104490 77080
L104460 77050
L104490 77030
L104490 77080
" />
<path d="M105530 77390
L105190 77390
" />
<path d="M105360 77390
L105360 76800
L105300 76890
L105250 76940
L105190 76970
" />
<path d="M106200 76770
L105700 77530
" />
<path d="M106650 77000
L106650 77390
" />
<path d="M106510 76770
L106370 77200
L106740 77200
" />
</g>
<g style="fill:#840000; fill-opacity:0.0; 
stroke:#840000; stroke-width:100; stroke-opacity:1; 
stroke-linecap:round; stroke-linejoin:round;">
</g>
<g style="fill:#840000; fill-opacity:0.0; 
stroke:#840000; stroke-width:60; stroke-opacity:1; 
stroke-linecap:round; stroke-linejoin:round;">
<path d="M69690 73820
L112210 73820
" />
</g>
<g style="fill:#840000; fill-opacity:0.0; 
stroke:#840000; stroke-width:100; stroke-opacity:1; 
stroke-linecap:round; stroke-linejoin:round;">
</g>
<g style="fill:#840000; fill-opacity:0.0; 
stroke:#840000; stroke-width:160; stroke-opacity:1; 
stroke-linecap:round; stroke-linejoin:round;">
<path d="M70260 74090
L70710 74090
" />
<path d="M70390 74880
L70480 74090
" />
<path d="M70880 74880
L70940 74360
" />
<path d="M70970 74090
L70930 74130
L70960 74170
L71010 74130
L70970 74090
L70960 74170
" />
<path d="M71210 74360
L71510 74360
" />
<path d="M71350 74090
L71270 74770
L71300 74840
L71370 74880
L71450 74880
" />
<path d="M71820 74880
L71750 74840
L71720 74770
L71800 74090
" />
<path d="M72420 74840
L72340 74880
L72190 74880
L72120 74840
L72090 74770
L72130 74470
L72180 74390
L72250 74360
L72400 74360
L72480 74390
L72510 74470
L72500 74540
L72110 74620
" />
<path d="M72800 74810
L72840 74840
L72800 74880
L72760 74840
L72800 74810
L72800 74880
" />
<path d="M72860 74390
L72890 74430
L72850 74470
L72810 74430
L72860 74390
L72850 74470
" />
<path d="M73780 74880
L73870 74090
" />
<path d="M74160 74880
L74250 74090
L74440 74660
L74770 74090
L74680 74880
" />
<path d="M75070 74090
L75510 74880
" />
<path d="M75600 74090
L74980 74880
" />
<path d="M75840 74580
L76440 74580
" />
<path d="M77240 74880
L77020 74510
" />
<path d="M76790 74880
L76880 74090
L77180 74090
L77250 74130
L77280 74170
L77320 74240
L77300 74360
L77250 74430
L77210 74470
L77130 74510
L76830 74510
" />
<path d="M77560 74090
L78010 74090
" />
<path d="M77690 74880
L77780 74090
" />
<path d="M79190 74880
L78740 74880
" />
<path d="M78970 74880
L79060 74090
L78970 74210
L78890 74280
L78810 74320
" />
<path d="M79770 74090
L79840 74090
L79920 74130
L79950 74170
L79980 74240
L80000 74390
L79970 74580
L79910 74730
L79870 74810
L79830 74840
L79750 74880
L79680 74880
L79600 74840
L79570 74810
L79540 74730
L79520 74580
L79550 74390
L79610 74240
L79650 74170
L79690 74130
L79770 74090
" />
<path d="M80320 74170
L80370 74130
L80440 74090
L80630 74090
L80710 74130
L80730 74170
L80770 74240
L80760 74320
L80700 74430
L80200 74880
L80690 74880
" />
<path d="M81440 74880
L80990 74880
" />
<path d="M81220 74880
L81310 74090
L81220 74210
L81140 74280
L81060 74320
" />
<path d="M82380 74880
L82440 74360
" />
<path d="M82470 74090
L82430 74130
L82460 74170
L82510 74130
L82470 74090
L82460 74170
" />
<path d="M82820 74360
L82760 74880
" />
<path d="M82810 74430
L82860 74390
L82930 74360
L83040 74360
L83120 74390
L83150 74470
L83100 74880
" />
<path d="M84440 74880
L84070 74880
L84160 74090
" />
<path d="M85210 74960
L85150 74920
L85080 74840
L84980 74730
L84920 74690
L84840 74690
" />
<path d="M84860 74880
L84780 74840
L84720 74770
L84700 74620
L84730 74360
L84790 74210
L84870 74130
L84950 74090
L85100 74090
L85170 74130
L85240 74210
L85260 74360
L85230 74620
L85170 74770
L85080 74840
L85010 74880
L84860 74880
" />
<path d="M85850 74470
L85590 74470
" />
<path d="M85540 74880
L85630 74090
L86000 74090
" />
<path d="M86220 74880
L86310 74090
L86610 74090
L86680 74130
L86710 74170
L86750 74240
L86730 74360
L86680 74430
L86640 74470
L86560 74510
L86260 74510
" />
<path d="M87420 74880
L86970 74880
" />
<path d="M87200 74880
L87290 74090
L87200 74210
L87120 74280
L87040 74320
" />
<path d="M88160 74360
L88100 74880
" />
<path d="M88010 74050
L87750 74620
L88240 74620
" />
<path d="M88910 74360
L88850 74880
" />
<path d="M88760 74050
L88500 74620
L88990 74620
" />
<path d="M89860 74880
L89950 74090
" />
<path d="M89920 74390
L89990 74360
L90140 74360
L90220 74390
L90250 74430
L90270 74510
L90240 74730
L90200 74810
L90160 74840
L90080 74880
L89930 74880
L89860 74840
" />
<path d="M90680 74880
L90610 74840
L90570 74810
L90540 74730
L90570 74510
L90620 74430
L90670 74390
L90740 74360
L90850 74360
L90930 74390
L90960 74430
L90980 74510
L90950 74730
L90910 74810
L90870 74840
L90790 74880
L90680 74880
" />
<path d="M91620 74880
L91670 74470
L91640 74390
L91560 74360
L91410 74360
L91340 74390
" />
<path d="M91620 74840
L91540 74880
L91350 74880
L91280 74840
L91250 74770
L91260 74690
L91310 74620
L91380 74580
L91570 74580
L91660 74540
" />
<path d="M91990 74880
L92050 74360
" />
<path d="M92030 74510
L92080 74430
L92120 74390
L92200 74360
L92270 74360
" />
<path d="M92820 74880
L92910 74090
" />
<path d="M92820 74840
L92740 74880
L92590 74880
L92520 74840
L92480 74810
L92450 74730
L92480 74510
L92530 74430
L92580 74390
L92650 74360
L92800 74360
L92880 74390
" />
</g>
<g style="fill:#840000; fill-opacity:0.0; 
stroke:#840000; stroke-width:100; stroke-opacity:1; 
stroke-linecap:round; stroke-linejoin:round;">
</g>
<g style="fill:#840000; fill-opacity:0.0; 
stroke:#840000; stroke-width:60; stroke-opacity:1; 
stroke-linecap:round; stroke-linejoin:round;">
<path d="M70420 73060
L70220 73060
" />
<path d="M70220 73370
L70220 72780
L70500 72780
" />
<path d="M70730 73370
L70730 72980
" />
<path d="M70730 72780
L70700 72810
L70730 72840
L70760 72810
L70730 72780
L70730 72840
" />
<path d="M71090 73370
L71040 73340
L71010 73290
L71010 72780
" />
<path d="M71550 73340
L71490 73370
L71380 73370
L71320 73340
L71290 73290
L71290 73060
L71320 73010
L71380 72980
L71490 72980
L71550 73010
L71570 73060
L71570 73120
L71290 73180
" />
<path d="M71830 73320
L71860 73340
L71830 73370
L71800 73340
L71830 73320
L71830 73370
" />
<path d="M71830 73010
L71860 73030
L71830 73060
L71800 73030
L71830 73010
L71830 73060
" />
<path d="M72560 73370
L72560 72980
" />
<path d="M72560 72780
L72530 72810
L72560 72840
L72590 72810
L72560 72780
L72560 72840
" />
<path d="M72840 73370
L72840 72980
" />
<path d="M72840 73030
L72870 73010
L72920 72980
L73010 72980
L73070 73010
L73090 73060
L73090 73370
" />
<path d="M73090 73060
L73120 73010
L73180 72980
L73260 72980
L73320 73010
L73350 73060
L73350 73370
" />
<path d="M73570 73370
L73880 72980
" />
<path d="M73570 72980
L73880 73370
" />
<path d="M74110 73370
L74110 72980
" />
<path d="M74110 73090
L74140 73030
L74170 73010
L74220 72980
L74280 72980
" />
<path d="M74400 72980
L74620 72980
" />
<path d="M74480 72780
L74480 73290
L74510 73340
L74560 73370
L74620 73370
" />
<path d="M75130 73370
L74790 73370
" />
<path d="M74960 73370
L74960 72780
L74900 72870
L74850 72920
L74790 72950
" />
<path d="M75490 72780
L75550 72780
L75610 72810
L75630 72840
L75660 72890
L75690 73010
L75690 73150
L75660 73260
L75630 73320
L75610 73340
L75550 73370
L75490 73370
L75440 73340
L75410 73320
L75380 73260
L75350 73150
L75350 73010
L75380 72890
L75410 72840
L75440 72810
L75490 72780
" />
<path d="M75910 72840
L75940 72810
L76000 72780
L76140 72780
L76190 72810
L76220 72840
L76250 72890
L76250 72950
L76220 73030
L75880 73370
L76250 73370
" />
<path d="M76610 72780
L76670 72780
L76730 72810
L76750 72840
L76780 72890
L76810 73010
L76810 73150
L76780 73260
L76750 73320
L76730 73340
L76670 73370
L76610 73370
L76560 73340
L76530 73320
L76500 73260
L76470 73150
L76470 73010
L76500 72890
L76530 72840
L76560 72810
L76610 72780
" />
<path d="M77060 73150
L77510 73150
" />
<path d="M77790 73370
L77790 72780
" />
<path d="M77790 73010
L77850 72980
L77960 72980
L78020 73010
L78040 73030
L78070 73090
L78070 73260
L78040 73320
L78020 73340
L77960 73370
L77850 73370
L77790 73340
" />
<path d="M78400 73370
L78350 73340
L78320 73320
L78290 73260
L78290 73090
L78320 73030
L78350 73010
L78400 72980
L78490 72980
L78550 73010
L78570 73030
L78600 73090
L78600 73260
L78570 73320
L78550 73340
L78490 73370
L78400 73370
" />
<path d="M79100 73370
L79100 73060
L79080 73010
L79020 72980
L78910 72980
L78850 73010
" />
<path d="M79100 73340
L79050 73370
L78910 73370
L78850 73340
L78820 73290
L78820 73230
L78850 73180
L78910 73150
L79050 73150
L79100 73120
" />
<path d="M79380 73370
L79380 72980
" />
<path d="M79380 73090
L79410 73030
L79440 73010
L79490 72980
L79550 72980
" />
<path d="M80000 73370
L80000 72780
" />
<path d="M80000 73340
L79950 73370
L79830 73370
L79780 73340
L79750 73320
L79720 73260
L79720 73090
L79750 73030
L79780 73010
L79830 72980
L79950 72980
L80000 73010
" />
<path d="M80280 73320
L80310 73340
L80280 73370
L80250 73340
L80280 73320
L80280 73370
" />
<path d="M80530 73340
L80590 73370
L80700 73370
L80760 73340
L80790 73290
L80790 73260
L80760 73200
L80700 73180
L80620 73180
L80560 73150
L80530 73090
L80530 73060
L80560 73010
L80620 72980
L80700 72980
L80760 73010
" />
<path d="M81290 73340
L81240 73370
L81120 73370
L81070 73340
L81040 73320
L81010 73260
L81010 73090
L81040 73030
L81070 73010
L81120 72980
L81240 72980
L81290 73010
" />
<path d="M81550 73370
L81550 72780
" />
<path d="M81800 73370
L81800 73060
L81780 73010
L81720 72980
L81630 72980
L81580 73010
L81550 73030
" />
</g>
<g style="fill:#840000; fill-opacity:0.0; 
stroke:#840000; stroke-width:100; stroke-opacity:1; 
stroke-linecap:round; stroke-linejoin:round;">
</g>
<g style="fill:#840000; fill-opacity:0.0; 
stroke:#840000; stroke-width:60; stroke-opacity:1; 
stroke-linecap:round; stroke-linejoin:round;">
<path d="M69690 71460
L112210 71460
" />
</g>
<g style="fill:#840000; fill-opacity:0.0; 
stroke:#840000; stroke-width:100; stroke-opacity:1; 
stroke-linecap:round; stroke-linejoin:round;">
</g>
<g style="fill:#840000; fill-opacity:0.0; 
stroke:#840000; stroke-width:60; stroke-opacity:1; 
stroke-linecap:round; stroke-linejoin:round;">
<path d="M70190 72280
L70280 72310
L70420 72310
L70470 72280
L70500 72260
L70530 72200
L70530 72140
L70500 72090
L70470 72060
L70420 72030
L70300 72000
L70250 71970
L70220 71950
L70190 71890
L70190 71830
L70220 71780
L70250 71750
L70300 71720
L70450 71720
L70530 71750
" />
<path d="M70780 72310
L70780 71720
" />
<path d="M71030 72310
L71030 72000
L71010 71950
L70950 71920
L70860 71920
L70810 71950
L70780 71970
" />
<path d="M71540 72280
L71480 72310
L71370 72310
L71310 72280
L71280 72230
L71280 72000
L71310 71950
L71370 71920
L71480 71920
L71540 71950
L71560 72000
L71560 72060
L71280 72120
" />
<path d="M72050 72280
L71990 72310
L71880 72310
L71820 72280
L71790 72230
L71790 72000
L71820 71950
L71880 71920
L71990 71920
L72050 71950
L72070 72000
L72070 72060
L71790 72120
" />
<path d="M72250 71920
L72470 71920
" />
<path d="M72330 71720
L72330 72230
L72360 72280
L72410 72310
L72470 72310
" />
<path d="M72670 72260
L72700 72280
L72670 72310
L72640 72280
L72670 72260
L72670 72310
" />
<path d="M72670 71950
L72700 71970
L72670 72000
L72640 71970
L72670 71950
L72670 72000
" />
<path d="M73820 71690
L73320 72450
" />
</g>
<g style="fill:#840000; fill-opacity:0.0; 
stroke:#840000; stroke-width:100; stroke-opacity:1; 
stroke-linecap:round; stroke-linejoin:round;">
</g>
<g style="fill:#840000; fill-opacity:0.0; 
stroke:#840000; stroke-width:120; stroke-opacity:1; 
stroke-linecap:round; stroke-linejoin:round;">
<path d="M70560 71080
L70530 71100
L70450 71130
L70390 71130
L70300 71100
L70250 71050
L70220 70990
L70190 70880
L70190 70790
L70220 70680
L70250 70630
L70300 70570
L70390 70540
L70450 70540
L70530 70570
L70560 70600
" />
<path d="M70810 71130
L70810 70540
" />
<path d="M71060 70960
L71340 70960
" />
<path d="M71010 71130
L71200 70540
L71400 71130
" />
<path d="M71570 70960
L71850 70960
" />
<path d="M71520 71130
L71710 70540
L71910 71130
" />
<path d="M72560 71130
L72560 70540
L72790 70540
L72840 70570
L72870 70600
L72900 70650
L72900 70740
L72870 70790
L72840 70820
L72790 70850
L72560 70850
" />
<path d="M73150 71130
L73150 70740
" />
<path d="M73150 70850
L73180 70790
L73210 70770
L73260 70740
L73320 70740
" />
<path d="M73600 71130
L73550 71100
L73520 71080
L73490 71020
L73490 70850
L73520 70790
L73550 70770
L73600 70740
L73690 70740
L73750 70770
L73770 70790
L73800 70850
L73800 71020
L73770 71080
L73750 71100
L73690 71130
L73600 71130
" />
<path d="M74050 70740
L74050 71240
L74020 71300
L73970 71330
L73940 71330
" />
<path d="M74050 70540
L74020 70570
L74050 70600
L74080 70570
L74050 70540
L74050 70600
" />
<path d="M74560 71100
L74500 71130
L74390 71130
L74330 71100
L74300 71050
L74300 70820
L74330 70770
L74390 70740
L74500 70740
L74560 70770
L74580 70820
L74580 70880
L74300 70940
" />
<path d="M75090 71100
L75040 71130
L74920 71130
L74870 71100
L74840 71080
L74810 71020
L74810 70850
L74840 70790
L74870 70770
L74920 70740
L75040 70740
L75090 70770
" />
<path d="M75270 70740
L75490 70740
" />
<path d="M75350 70540
L75350 71050
L75380 71100
L75430 71130
L75490 71130
" />
</g>
<g style="fill:#840000; fill-opacity:0.0; 
stroke:#840000; stroke-width:100; stroke-opacity:1; 
stroke-linecap:round; stroke-linejoin:round;">
</g>
<g style="fill:#840000; fill-opacity:0.0; 
stroke:#840000; stroke-width:60; stroke-opacity:1; 
stroke-linecap:round; stroke-linejoin:round;">
<path d="M77560 75400
L77560 76580
" />
</g>
<g style="fill:#840000; fill-opacity:0.0; 
stroke:#840000; stroke-width:100; stroke-opacity:1; 
stroke-linecap:round; stroke-linejoin:round;">
</g>
<g style="fill:#840000; fill-opacity:0.0; 
stroke:#840000; stroke-width:60; stroke-opacity:1; 
stroke-linecap:round; stroke-linejoin:round;">
<path d="M102760 75400
L102760 77960
" />
</g>
<g style="fill:#840084; fill-opacity:0.0; 
stroke:#840084; stroke-width:60; stroke-opacity:1; 
stroke-linecap:round; stroke-linejoin:round;">
<path d="M18500 19500
L29500 19500
L29500 27000
L18500 27000
L18500 19500
" />
</g>
<g style="fill:#008484; fill-opacity:0.0; 
stroke:#008484; stroke-width:60; stroke-opacity:1; 
stroke-linecap:round; stroke-linejoin:round;">
<path d="M18640 19430
L18640 18830
L18870 18830
L18930 18860
L18960 18890
L18990 18950
L18990 19030
L18960 19090
L18930 19120
L18870 19150
L18640 19150
" />
<path d="M19360 18830
L19470 18830
L19530 18860
L19590 18920
L19610 19030
L19610 19230
L19590 19350
L19530 19400
L19470 19430
L19360 19430
L19300 19400
L19240 19350
L19210 19230
L19210 19030
L19240 18920
L19300 18860
L19360 18830
" />
<path d="M19820 18830
L19960 19430
L20070 19000
L20190 19430
L20330 18830
" />
<path d="M20560 19120
L20760 19120
" />
<path d="M20850 19430
L20560 19430
L20560 18830
L20850 18830
" />
<path d="M21450 19430
L21250 19150
" />
<path d="M21100 19430
L21100 18830
L21330 18830
L21390 18860
L21420 18890
L21450 18950
L21450 19030
L21420 19090
L21390 19120
L21330 19150
L21100 19150
" />
</g>
<g style="fill:#848400; fill-opacity:0.0; 
stroke:#848400; stroke-width:60; stroke-opacity:1; 
stroke-linecap:round; stroke-linejoin:round;">
<path d="M18640 27610
L18640 27010
L18870 27010
L18930 27040
L18960 27070
L18990 27130
L18990 27210
L18960 27270
L18930 27300
L18870 27330
L18640 27330
" />
<path d="M19360 27010
L19470 27010
L19530 27040
L19590 27100
L19610 27210
L19610 27410
L19590 27530
L19530 27580
L19470 27610
L19360 27610
L19300 27580
L19240 27530
L19210 27410
L19210 27210
L19240 27100
L19300 27040
L19360 27010
" />
<path d="M19820 27010
L19960 27610
L20070 27180
L20190 27610
L20330 27010
" />
<path d="M20560 27300
L20760 27300
" />
<path d="M20850 27610
L20560 27610
L20560 27010
L20850 27010
" />
<path d="M21450 27610
L21250 27330
" />
<path d="M21100 27610
L21100 27010
L21330 27010
L21390 27040
L21420 27070
L21450 27130
L21450 27210
L21420 27270
L21390 27300
L21330 27330
L21100 27330
" />
<path d="M21700 27550
L21730 27580
L21700 27610
L21670 27580
L21700 27550
L21700 27610
" />
<path d="M21960 27580
L22020 27610
L22140 27610
L22190 27580
L22220 27530
L22220 27500
L22190 27440
L22140 27410
L22050 27410
L21990 27380
L21960 27330
L21960 27300
L21990 27240
L22050 27210
L22140 27210
L22190 27240
" />
<path d="M22740 27580
L22680 27610
L22570 27610
L22510 27580
L22480 27550
L22450 27500
L22450 27330
L22480 27270
L22510 27240
L22570 27210
L22680 27210
L22740 27240
" />
<path d="M22990 27610
L22990 27010
" />
<path d="M23250 27610
L23250 27300
L23220 27240
L23160 27210
L23080 27210
L23020 27240
L22990 27270
" />
</g>
<g style="fill:#840084; fill-opacity:0.0; 
stroke:#840084; stroke-width:60; stroke-opacity:1; 
stroke-linecap:round; stroke-linejoin:round;">
</g>
<g style="fill:#848400; fill-opacity:0.0; 
stroke:#848400; stroke-width:60; stroke-opacity:1; 
stroke-linecap:round; stroke-linejoin:round;">
<path d="M26520 22270
L26320 21990
" />
<path d="M26170 22270
L26170 21670
L26400 21670
L26460 21700
L26490 21730
L26520 21790
L26520 21870
L26490 21930
L26460 21960
L26400 21990
L26170 21990
" />
<path d="M26770 21960
L26970 21960
" />
<path d="M27060 22270
L26770 22270
L26770 21670
L27060 21670
" />
<path d="M27280 22240
L27370 22270
L27510 22270
L27570 22240
L27600 22210
L27630 22160
L27630 22100
L27600 22040
L27570 22010
L27510 21990
L27400 21960
L27340 21930
L27310 21900
L27280 21840
L27280 21790
L27310 21730
L27340 21700
L27400 21670
L27540 21670
L27630 21700
" />
<path d="M27880 21960
L28080 21960
" />
<path d="M28170 22270
L27880 22270
L27880 21670
L28170 21670
" />
<path d="M28340 21670
L28680 21670
" />
<path d="M28510 22270
L28510 21670
" />
</g>
<g style="fill:#848400; fill-opacity:0.0; 
stroke:#848400; stroke-width:100; stroke-opacity:1; 
stroke-linecap:round; stroke-linejoin:round;">
<polyline fill="none;"
points="28900,22000
29200,22300
29500,22300
29500,21700
29200,21700
28900,22000
" /> 
</g>
<g style="fill:#848400; fill-opacity:0.0; 
stroke:#848400; stroke-width:60; stroke-opacity:1; 
stroke-linecap:round; stroke-linejoin:round;">
<path d="M25260 22670
L25400 23270
L25510 22840
L25630 23270
L25770 22670
" />
<path d="M25970 23100
L26260 23100
" />
<path d="M25920 23270
L26120 22670
L26320 23270
" />
<path d="M26510 23270
L26510 22670
" />
<path d="M26860 23270
L26600 22930
" />
<path d="M26860 22670
L26510 23010
" />
<path d="M27110 22960
L27310 22960
" />
<path d="M27400 23270
L27110 23270
L27110 22670
L27400 22670
" />
<path d="M27650 22670
L27650 23160
L27680 23210
L27710 23240
L27770 23270
L27880 23270
L27940 23240
L27970 23210
L28000 23160
L28000 22670
" />
<path d="M28280 23270
L28280 22670
L28510 22670
L28570 22700
L28600 22730
L28630 22790
L28630 22870
L28600 22930
L28570 22960
L28510 22990
L28280 22990
" />
</g>
<g style="fill:#848400; fill-opacity:0.0; 
stroke:#848400; stroke-width:100; stroke-opacity:1; 
stroke-linecap:round; stroke-linejoin:round;">
<polyline fill="none;"
points="28900,23000
29200,23300
29500,23300
29500,22700
29200,22700
28900,23000
" /> 
</g>
<g style="fill:#848400; fill-opacity:0.0; 
stroke:#848400; stroke-width:60; stroke-opacity:1; 
stroke-linecap:round; stroke-linejoin:round;">
<path d="M25040 21270
L25040 20670
L25270 20670
L25330 20700
L25360 20730
L25390 20790
L25390 20870
L25360 20930
L25330 20960
L25270 20990
L25040 20990
" />
<path d="M25590 20670
L25730 21270
L25840 20840
L25960 21270
L26100 20670
" />
<path d="M26680 21270
L26480 20990
" />
<path d="M26330 21270
L26330 20670
L26560 20670
L26620 20700
L26650 20730
L26680 20790
L26680 20870
L26650 20930
L26620 20960
L26560 20990
L26330 20990
" />
<path d="M26790 21330
L27250 21330
" />
<path d="M27390 21270
L27390 20670
" />
<path d="M27680 21270
L27680 20670
L28030 21270
L28030 20670
" />
<path d="M28630 21270
L28280 21270
" />
<path d="M28460 21270
L28460 20670
L28400 20760
L28340 20810
L28280 20840
" />
</g>
<g style="fill:#848400; fill-opacity:0.0; 
stroke:#848400; stroke-width:100; stroke-opacity:1; 
stroke-linecap:round; stroke-linejoin:round;">
<polyline fill="none;"
points="28900,21000
29200,21300
29500,21300
29500,20700
29200,20700
28900,21000
" /> 
</g>
<g style="fill:#848400; fill-opacity:0.0; 
stroke:#848400; stroke-width:60; stroke-opacity:1; 
stroke-linecap:round; stroke-linejoin:round;">
<path d="M25040 24270
L25040 23670
L25270 23670
L25330 23700
L25360 23730
L25390 23790
L25390 23870
L25360 23930
L25330 23960
L25270 23990
L25040 23990
" />
<path d="M25590 23670
L25730 24270
L25840 23840
L25960 24270
L26100 23670
" />
<path d="M26680 24270
L26480 23990
" />
<path d="M26330 24270
L26330 23670
L26560 23670
L26620 23700
L26650 23730
L26680 23790
L26680 23870
L26650 23930
L26620 23960
L26560 23990
L26330 23990
" />
<path d="M26790 24330
L27250 24330
" />
<path d="M27390 24270
L27390 23670
" />
<path d="M27680 24270
L27680 23670
L28030 24270
L28030 23670
" />
<path d="M28280 23730
L28310 23700
L28370 23670
L28510 23670
L28570 23700
L28600 23730
L28630 23790
L28630 23840
L28600 23930
L28260 24270
L28630 24270
" />
</g>
<g style="fill:#848400; fill-opacity:0.0; 
stroke:#848400; stroke-width:100; stroke-opacity:1; 
stroke-linecap:round; stroke-linejoin:round;">
<polyline fill="none;"
points="28900,24000
29200,24300
29500,24300
29500,23700
29200,23700
28900,24000
" /> 
</g>
<g style="fill:#848400; fill-opacity:0.0; 
stroke:#848400; stroke-width:60; stroke-opacity:1; 
stroke-linecap:round; stroke-linejoin:round;">
</g>
<g style="fill:#840084; fill-opacity:0.0; 
stroke:#840084; stroke-width:60; stroke-opacity:1; 
stroke-linecap:round; stroke-linejoin:round;">
<path d="M62000 18500
L72500 18500
L72500 33500
L62000 33500
L62000 18500
" />
</g>
<g style="fill:#008484; fill-opacity:0.0; 
stroke:#008484; stroke-width:60; stroke-opacity:1; 
stroke-linecap:round; stroke-linejoin:round;">
<path d="M62140 18430
L62140 17830
L62340 18260
L62540 17830
L62540 18430
" />
<path d="M62830 18120
L63030 18120
" />
<path d="M63120 18430
L62830 18430
L62830 17830
L63120 17830
" />
<path d="M63370 18430
L63370 17830
L63570 18260
L63770 17830
L63770 18430
" />
<path d="M64180 17830
L64290 17830
L64350 17860
L64410 17920
L64430 18030
L64430 18230
L64410 18350
L64350 18400
L64290 18430
L64180 18430
L64120 18400
L64060 18350
L64030 18230
L64030 18030
L64060 17920
L64120 17860
L64180 17830
" />
<path d="M65040 18430
L64840 18150
" />
<path d="M64690 18430
L64690 17830
L64920 17830
L64980 17860
L65010 17890
L65040 17950
L65040 18030
L65010 18090
L64980 18120
L64920 18150
L64690 18150
" />
<path d="M65410 18150
L65410 18430
" />
<path d="M65210 17830
L65410 18150
L65610 17830
" />
</g>
<g style="fill:#848400; fill-opacity:0.0; 
stroke:#848400; stroke-width:60; stroke-opacity:1; 
stroke-linecap:round; stroke-linejoin:round;">
<path d="M62140 34110
L62140 33510
L62340 33940
L62540 33510
L62540 34110
" />
<path d="M62830 33800
L63030 33800
" />
<path d="M63120 34110
L62830 34110
L62830 33510
L63120 33510
" />
<path d="M63370 34110
L63370 33510
L63570 33940
L63770 33510
L63770 34110
" />
<path d="M64180 33510
L64290 33510
L64350 33540
L64410 33600
L64430 33710
L64430 33910
L64410 34030
L64350 34080
L64290 34110
L64180 34110
L64120 34080
L64060 34030
L64030 33910
L64030 33710
L64060 33600
L64120 33540
L64180 33510
" />
<path d="M65040 34110
L64840 33830
" />
<path d="M64690 34110
L64690 33510
L64920 33510
L64980 33540
L65010 33570
L65040 33630
L65040 33710
L65010 33770
L64980 33800
L64920 33830
L64690 33830
" />
<path d="M65410 33830
L65410 34110
" />
<path d="M65210 33510
L65410 33830
L65610 33510
" />
<path d="M65800 34050
L65830 34080
L65800 34110
L65770 34080
L65800 34050
L65800 34110
" />
<path d="M66060 34080
L66120 34110
L66240 34110
L66290 34080
L66320 34030
L66320 34000
L66290 33940
L66240 33910
L66150 33910
L66090 33880
L66060 33830
L66060 33800
L66090 33740
L66150 33710
L66240 33710
L66290 33740
" />
<path d="M66840 34080
L66780 34110
L66670 34110
L66610 34080
L66580 34050
L66550 34000
L66550 33830
L66580 33770
L66610 33740
L66670 33710
L66780 33710
L66840 33740
" />
<path d="M67090 34110
L67090 33510
" />
<path d="M67350 34110
L67350 33800
L67320 33740
L67260 33710
L67180 33710
L67120 33740
L67090 33770
" />
</g>
<g style="fill:#840084; fill-opacity:0.0; 
stroke:#840084; stroke-width:60; stroke-opacity:1; 
stroke-linecap:round; stroke-linejoin:round;">
</g>
<g style="fill:#848400; fill-opacity:0.0; 
stroke:#848400; stroke-width:60; stroke-opacity:1; 
stroke-linecap:round; stroke-linejoin:round;">
<path d="M62900 24460
L63100 24460
" />
<path d="M63190 24770
L62900 24770
L62900 24170
L63190 24170
" />
<path d="M63440 24770
L63440 24170
L63790 24770
L63790 24170
" />
<path d="M64070 24460
L64270 24460
" />
<path d="M64360 24770
L64070 24770
L64070 24170
L64360 24170
" />
<path d="M64530 24170
L64870 24170
" />
<path d="M64700 24770
L64700 24170
" />
<path d="M64930 24830
L65390 24830
" />
<path d="M65530 24770
L65530 24170
L65730 24600
L65930 24170
L65930 24770
" />
<path d="M66220 24770
L66220 24170
L66370 24170
L66450 24200
L66510 24260
L66540 24310
L66570 24430
L66570 24510
L66540 24630
L66510 24690
L66450 24740
L66370 24770
L66220 24770
" />
<path d="M66820 24770
L66820 24170
" />
<path d="M67230 24170
L67340 24170
L67400 24200
L67460 24260
L67480 24370
L67480 24570
L67460 24690
L67400 24740
L67340 24770
L67230 24770
L67170 24740
L67110 24690
L67080 24570
L67080 24370
L67110 24260
L67170 24200
L67230 24170
" />
</g>
<g style="fill:#848400; fill-opacity:0.0; 
stroke:#848400; stroke-width:100; stroke-opacity:1; 
stroke-linecap:round; stroke-linejoin:round;">
<polyline fill="none;"
points="62000,24500
62300,24200
62600,24500
62300,24800
62000,24500
" /> 
</g>
<g style="fill:#848400; fill-opacity:0.0; 
stroke:#848400; stroke-width:60; stroke-opacity:1; 
stroke-linecap:round; stroke-linejoin:round;">
<path d="M62900 23460
L63100 23460
" />
<path d="M63190 23770
L62900 23770
L62900 23170
L63190 23170
" />
<path d="M63440 23770
L63440 23170
L63790 23770
L63790 23170
" />
<path d="M64070 23460
L64270 23460
" />
<path d="M64360 23770
L64070 23770
L64070 23170
L64360 23170
" />
<path d="M64530 23170
L64870 23170
" />
<path d="M64700 23770
L64700 23170
" />
<path d="M64930 23830
L65390 23830
" />
<path d="M65530 23770
L65530 23170
L65730 23600
L65930 23170
L65930 23770
" />
<path d="M66220 23770
L66220 23170
L66370 23170
L66450 23200
L66510 23260
L66540 23310
L66570 23430
L66570 23510
L66540 23630
L66510 23690
L66450 23740
L66370 23770
L66220 23770
" />
<path d="M67170 23710
L67140 23740
L67050 23770
L66990 23770
L66910 23740
L66850 23690
L66820 23630
L66790 23510
L66790 23430
L66820 23310
L66850 23260
L66910 23200
L66990 23170
L67050 23170
L67140 23200
L67170 23230
" />
</g>
<g style="fill:#848400; fill-opacity:0.0; 
stroke:#848400; stroke-width:100; stroke-opacity:1; 
stroke-linecap:round; stroke-linejoin:round;">
<polyline fill="none;"
points="62000,23500
62300,23800
62600,23800
62600,23200
62300,23200
62000,23500
" /> 
</g>
<g style="fill:#848400; fill-opacity:0.0; 
stroke:#848400; stroke-width:60; stroke-opacity:1; 
stroke-linecap:round; stroke-linejoin:round;">
<path d="M63250 26210
L63220 26240
L63130 26270
L63070 26270
L62990 26240
L62930 26190
L62900 26130
L62870 26010
L62870 25930
L62900 25810
L62930 25760
L62990 25700
L63070 25670
L63130 25670
L63220 25700
L63250 25730
" />
<path d="M63470 26100
L63760 26100
" />
<path d="M63420 26270
L63620 25670
L63820 26270
" />
<path d="M64010 26270
L64010 25670
L64360 26270
L64360 25670
" />
<path d="M64500 26330
L64960 26330
" />
<path d="M65020 25670
L65360 25670
" />
<path d="M65190 26270
L65190 25670
" />
<path d="M65510 25670
L65910 26270
" />
<path d="M65910 25670
L65510 26270
" />
</g>
<g style="fill:#848400; fill-opacity:0.0; 
stroke:#848400; stroke-width:100; stroke-opacity:1; 
stroke-linecap:round; stroke-linejoin:round;">
<polyline fill="none;"
points="62000,26000
62300,26300
62600,26300
62600,25700
62300,25700
62000,26000
" /> 
</g>
<g style="fill:#848400; fill-opacity:0.0; 
stroke:#848400; stroke-width:60; stroke-opacity:1; 
stroke-linecap:round; stroke-linejoin:round;">
<path d="M63250 27210
L63220 27240
L63130 27270
L63070 27270
L62990 27240
L62930 27190
L62900 27130
L62870 27010
L62870 26930
L62900 26810
L62930 26760
L62990 26700
L63070 26670
L63130 26670
L63220 26700
L63250 26730
" />
<path d="M63470 27100
L63760 27100
" />
<path d="M63420 27270
L63620 26670
L63820 27270
" />
<path d="M64010 27270
L64010 26670
L64360 27270
L64360 26670
" />
<path d="M64500 27330
L64960 27330
" />
<path d="M65450 27270
L65250 26990
" />
<path d="M65100 27270
L65100 26670
L65330 26670
L65390 26700
L65420 26730
L65450 26790
L65450 26870
L65420 26930
L65390 26960
L65330 26990
L65100 26990
" />
<path d="M65650 26670
L66050 27270
" />
<path d="M66050 26670
L65650 27270
" />
</g>
<g style="fill:#848400; fill-opacity:0.0; 
stroke:#848400; stroke-width:100; stroke-opacity:1; 
stroke-linecap:round; stroke-linejoin:round;">
<polyline fill="none;"
points="62600,27000
62300,26700
62000,26700
62000,27300
62300,27300
62600,27000
" /> 
</g>
<g style="fill:#848400; fill-opacity:0.0; 
stroke:#848400; stroke-width:60; stroke-opacity:1; 
stroke-linecap:round; stroke-linejoin:round;">
<path d="M63220 28200
L63160 28170
L63070 28170
L62990 28200
L62930 28260
L62900 28310
L62870 28430
L62870 28510
L62900 28630
L62930 28690
L62990 28740
L63070 28770
L63130 28770
L63220 28740
L63250 28710
L63250 28510
L63130 28510
" />
<path d="M63500 28770
L63500 28170
L63730 28170
L63790 28200
L63820 28230
L63850 28290
L63850 28370
L63820 28430
L63790 28460
L63730 28490
L63500 28490
" />
<path d="M64100 28770
L64100 28170
" />
<path d="M64510 28170
L64620 28170
L64680 28200
L64740 28260
L64760 28370
L64760 28570
L64740 28690
L64680 28740
L64620 28770
L64510 28770
L64450 28740
L64390 28690
L64360 28570
L64360 28370
L64390 28260
L64450 28200
L64510 28170
" />
<path d="M64970 28170
L65340 28170
L65140 28400
L65220 28400
L65280 28430
L65310 28460
L65340 28510
L65340 28660
L65310 28710
L65280 28740
L65220 28770
L65050 28770
L64990 28740
L64970 28710
" />
<path d="M65450 28830
L65910 28830
" />
<path d="M66020 28230
L66050 28200
L66110 28170
L66250 28170
L66310 28200
L66340 28230
L66370 28290
L66370 28340
L66340 28430
L66000 28770
L66370 28770
" />
<path d="M66880 28370
L66880 28770
" />
<path d="M66740 28140
L66590 28570
L66970 28570
" />
</g>
<g style="fill:#848400; fill-opacity:0.0; 
stroke:#848400; stroke-width:100; stroke-opacity:1; 
stroke-linecap:round; stroke-linejoin:round;">
<polyline fill="none;"
points="62000,28500
62300,28200
62600,28500
62300,28800
62000,28500
" /> 
</g>
<g style="fill:#848400; fill-opacity:0.0; 
stroke:#848400; stroke-width:60; stroke-opacity:1; 
stroke-linecap:round; stroke-linejoin:round;">
<path d="M63220 29200
L63160 29170
L63070 29170
L62990 29200
L62930 29260
L62900 29310
L62870 29430
L62870 29510
L62900 29630
L62930 29690
L62990 29740
L63070 29770
L63130 29770
L63220 29740
L63250 29710
L63250 29510
L63130 29510
" />
<path d="M63500 29770
L63500 29170
L63730 29170
L63790 29200
L63820 29230
L63850 29290
L63850 29370
L63820 29430
L63790 29460
L63730 29490
L63500 29490
" />
<path d="M64100 29770
L64100 29170
" />
<path d="M64510 29170
L64620 29170
L64680 29200
L64740 29260
L64760 29370
L64760 29570
L64740 29690
L64680 29740
L64620 29770
L64510 29770
L64450 29740
L64390 29690
L64360 29570
L64360 29370
L64390 29260
L64450 29200
L64510 29170
" />
<path d="M64970 29170
L65340 29170
L65140 29400
L65220 29400
L65280 29430
L65310 29460
L65340 29510
L65340 29660
L65310 29710
L65280 29740
L65220 29770
L65050 29770
L64990 29740
L64970 29710
" />
<path d="M65450 29830
L65910 29830
" />
<path d="M66020 29230
L66050 29200
L66110 29170
L66250 29170
L66310 29200
L66340 29230
L66370 29290
L66370 29340
L66340 29430
L66000 29770
L66370 29770
" />
<path d="M66910 29170
L66620 29170
L66590 29460
L66620 29430
L66680 29400
L66820 29400
L66880 29430
L66910 29460
L66940 29510
L66940 29660
L66910 29710
L66880 29740
L66820 29770
L66680 29770
L66620 29740
L66590 29710
" />
</g>
<g style="fill:#848400; fill-opacity:0.0; 
stroke:#848400; stroke-width:100; stroke-opacity:1; 
stroke-linecap:round; stroke-linejoin:round;">
<polyline fill="none;"
points="62000,29500
62300,29200
62600,29500
62300,29800
62000,29500
" /> 
</g>
<g style="fill:#848400; fill-opacity:0.0; 
stroke:#848400; stroke-width:60; stroke-opacity:1; 
stroke-linecap:round; stroke-linejoin:round;">
<path d="M62900 30670
L62900 31160
L62930 31210
L62960 31240
L63020 31270
L63130 31270
L63190 31240
L63220 31210
L63250 31160
L63250 30670
" />
<path d="M63500 31100
L63790 31100
" />
<path d="M63450 31270
L63650 30670
L63850 31270
" />
<path d="M64390 31270
L64190 30990
" />
<path d="M64040 31270
L64040 30670
L64270 30670
L64330 30700
L64360 30730
L64390 30790
L64390 30870
L64360 30930
L64330 30960
L64270 30990
L64040 30990
" />
<path d="M64560 30670
L64900 30670
" />
<path d="M64730 31270
L64730 30670
" />
<path d="M65190 30930
L65130 30900
L65100 30870
L65070 30810
L65070 30790
L65100 30730
L65130 30700
L65190 30670
L65300 30670
L65360 30700
L65390 30730
L65420 30790
L65420 30810
L65390 30870
L65360 30900
L65300 30930
L65190 30930
L65130 30960
L65100 30990
L65070 31040
L65070 31160
L65100 31210
L65130 31240
L65190 31270
L65300 31270
L65360 31240
L65390 31210
L65420 31160
L65420 31040
L65390 30990
L65360 30960
L65300 30930
" />
<path d="M65530 31330
L65990 31330
" />
<path d="M66480 31270
L66280 30990
" />
<path d="M66130 31270
L66130 30670
L66360 30670
L66420 30700
L66450 30730
L66480 30790
L66480 30870
L66450 30930
L66420 30960
L66360 30990
L66130 30990
" />
<path d="M66680 30670
L67080 31270
" />
<path d="M67080 30670
L66680 31270
" />
</g>
<g style="fill:#848400; fill-opacity:0.0; 
stroke:#848400; stroke-width:100; stroke-opacity:1; 
stroke-linecap:round; stroke-linejoin:round;">
<polyline fill="none;"
points="62600,31000
62300,30700
62000,30700
62000,31300
62300,31300
62600,31000
" /> 
</g>
<g style="fill:#848400; fill-opacity:0.0; 
stroke:#848400; stroke-width:60; stroke-opacity:1; 
stroke-linecap:round; stroke-linejoin:round;">
<path d="M62900 31670
L62900 32160
L62930 32210
L62960 32240
L63020 32270
L63130 32270
L63190 32240
L63220 32210
L63250 32160
L63250 31670
" />
<path d="M63500 32100
L63790 32100
" />
<path d="M63450 32270
L63650 31670
L63850 32270
" />
<path d="M64390 32270
L64190 31990
" />
<path d="M64040 32270
L64040 31670
L64270 31670
L64330 31700
L64360 31730
L64390 31790
L64390 31870
L64360 31930
L64330 31960
L64270 31990
L64040 31990
" />
<path d="M64560 31670
L64900 31670
" />
<path d="M64730 32270
L64730 31670
" />
<path d="M65190 31930
L65130 31900
L65100 31870
L65070 31810
L65070 31790
L65100 31730
L65130 31700
L65190 31670
L65300 31670
L65360 31700
L65390 31730
L65420 31790
L65420 31810
L65390 31870
L65360 31900
L65300 31930
L65190 31930
L65130 31960
L65100 31990
L65070 32040
L65070 32160
L65100 32210
L65130 32240
L65190 32270
L65300 32270
L65360 32240
L65390 32210
L65420 32160
L65420 32040
L65390 31990
L65360 31960
L65300 31930
" />
<path d="M65530 32330
L65990 32330
" />
<path d="M66050 31670
L66390 31670
" />
<path d="M66220 32270
L66220 31670
" />
<path d="M66540 31670
L66940 32270
" />
<path d="M66940 31670
L66540 32270
" />
</g>
<g style="fill:#848400; fill-opacity:0.0; 
stroke:#848400; stroke-width:100; stroke-opacity:1; 
stroke-linecap:round; stroke-linejoin:round;">
<polyline fill="none;"
points="62000,32000
62300,32300
62600,32300
62600,31700
62300,31700
62000,32000
" /> 
</g>
<g style="fill:#848400; fill-opacity:0.0; 
stroke:#848400; stroke-width:60; stroke-opacity:1; 
stroke-linecap:round; stroke-linejoin:round;">
</g>
<g style="fill:#008400; fill-opacity:0.0; 
stroke:#008400; stroke-width:60; stroke-opacity:1; 
stroke-linecap:round; stroke-linejoin:round;">
<path d="M38500 22000
L29500 22000
" />
<path d="M38500 21000
L29500 21000
" />
<path d="M38500 24000
L29500 24000
" />
</g>
<g style="fill:#840084; fill-opacity:0.0; 
stroke:#840084; stroke-width:60; stroke-opacity:1; 
stroke-linecap:round; stroke-linejoin:round;">
<path d="M38500 18000
L54500 18000
L54500 33500
L38500 33500
L38500 18000
" />
</g>
<g style="fill:#008484; fill-opacity:0.0; 
stroke:#008484; stroke-width:60; stroke-opacity:1; 
stroke-linecap:round; stroke-linejoin:round;">
<path d="M38960 17360
L38900 17330
L38810 17330
L38730 17360
L38670 17420
L38640 17470
L38610 17590
L38610 17670
L38640 17790
L38670 17850
L38730 17900
L38810 17930
L38870 17930
L38960 17900
L38990 17870
L38990 17670
L38870 17670
" />
<path d="M39240 17930
L39240 17330
L39470 17330
L39530 17360
L39560 17390
L39590 17450
L39590 17530
L39560 17590
L39530 17620
L39470 17650
L39240 17650
" />
<path d="M39840 17930
L39840 17330
" />
<path d="M40250 17330
L40360 17330
L40420 17360
L40480 17420
L40500 17530
L40500 17730
L40480 17850
L40420 17900
L40360 17930
L40250 17930
L40190 17900
L40130 17850
L40100 17730
L40100 17530
L40130 17420
L40190 17360
L40250 17330
" />
</g>
<g style="fill:#848400; fill-opacity:0.0; 
stroke:#848400; stroke-width:60; stroke-opacity:1; 
stroke-linecap:round; stroke-linejoin:round;">
<path d="M38960 33540
L38900 33510
L38810 33510
L38730 33540
L38670 33600
L38640 33650
L38610 33770
L38610 33850
L38640 33970
L38670 34030
L38730 34080
L38810 34110
L38870 34110
L38960 34080
L38990 34050
L38990 33850
L38870 33850
" />
<path d="M39240 34110
L39240 33510
L39470 33510
L39530 33540
L39560 33570
L39590 33630
L39590 33710
L39560 33770
L39530 33800
L39470 33830
L39240 33830
" />
<path d="M39840 34110
L39840 33510
" />
<path d="M40250 33510
L40360 33510
L40420 33540
L40480 33600
L40500 33710
L40500 33910
L40480 34030
L40420 34080
L40360 34110
L40250 34110
L40190 34080
L40130 34030
L40100 33910
L40100 33710
L40130 33600
L40190 33540
L40250 33510
" />
<path d="M40760 34050
L40790 34080
L40760 34110
L40730 34080
L40760 34050
L40760 34110
" />
<path d="M41020 34080
L41080 34110
L41200 34110
L41250 34080
L41280 34030
L41280 34000
L41250 33940
L41200 33910
L41110 33910
L41050 33880
L41020 33830
L41020 33800
L41050 33740
L41110 33710
L41200 33710
L41250 33740
" />
<path d="M41800 34080
L41740 34110
L41630 34110
L41570 34080
L41540 34050
L41510 34000
L41510 33830
L41540 33770
L41570 33740
L41630 33710
L41740 33710
L41800 33740
" />
<path d="M42050 34110
L42050 33510
" />
<path d="M42310 34110
L42310 33800
L42280 33740
L42220 33710
L42140 33710
L42080 33740
L42050 33770
" />
</g>
<g style="fill:#840084; fill-opacity:0.0; 
stroke:#840084; stroke-width:60; stroke-opacity:1; 
stroke-linecap:round; stroke-linejoin:round;">
</g>
<g style="fill:#848400; fill-opacity:0.0; 
stroke:#848400; stroke-width:60; stroke-opacity:1; 
stroke-linecap:round; stroke-linejoin:round;">
<path d="M39400 20670
L39400 21160
L39430 21210
L39460 21240
L39520 21270
L39630 21270
L39690 21240
L39720 21210
L39750 21160
L39750 20670
" />
<path d="M40000 21240
L40090 21270
L40230 21270
L40290 21240
L40320 21210
L40350 21160
L40350 21100
L40320 21040
L40290 21010
L40230 20990
L40120 20960
L40060 20930
L40030 20900
L40000 20840
L40000 20790
L40030 20730
L40060 20700
L40120 20670
L40260 20670
L40350 20700
" />
<path d="M40800 20960
L40890 20990
L40920 21010
L40950 21070
L40950 21160
L40920 21210
L40890 21240
L40830 21270
L40600 21270
L40600 20670
L40800 20670
L40860 20700
L40890 20730
L40920 20790
L40920 20840
L40890 20900
L40860 20930
L40800 20960
L40600 20960
" />
<path d="M41060 21330
L41520 21330
" />
<path d="M41580 20670
L41780 21270
L41980 20670
" />
<path d="M42370 20960
L42460 20990
L42490 21010
L42520 21070
L42520 21160
L42490 21210
L42460 21240
L42400 21270
L42170 21270
L42170 20670
L42370 20670
L42430 20700
L42460 20730
L42490 20790
L42490 20840
L42460 20900
L42430 20930
L42370 20960
L42170 20960
" />
<path d="M42770 20670
L42770 21160
L42800 21210
L42830 21240
L42890 21270
L43000 21270
L43060 21240
L43090 21210
L43120 21160
L43120 20670
" />
<path d="M43370 21240
L43460 21270
L43600 21270
L43660 21240
L43690 21210
L43720 21160
L43720 21100
L43690 21040
L43660 21010
L43600 20990
L43490 20960
L43430 20930
L43400 20900
L43370 20840
L43370 20790
L43400 20730
L43430 20700
L43490 20670
L43630 20670
L43720 20700
" />
</g>
<g style="fill:#848400; fill-opacity:0.0; 
stroke:#848400; stroke-width:100; stroke-opacity:1; 
stroke-linecap:round; stroke-linejoin:round;">
<polyline fill="none;"
points="38500,21000
38800,21300
39100,21300
39100,20700
38800,20700
38500,21000
" /> 
</g>
<g style="fill:#848400; fill-opacity:0.0; 
stroke:#848400; stroke-width:60; stroke-opacity:1; 
stroke-linecap:round; stroke-linejoin:round;">
<path d="M39570 21670
L39570 22100
L39550 22190
L39490 22240
L39400 22270
L39350 22270
" />
<path d="M39780 21670
L40120 21670
" />
<path d="M39950 22270
L39950 21670
" />
<path d="M40290 22100
L40580 22100
" />
<path d="M40240 22270
L40440 21670
L40640 22270
" />
<path d="M41150 21700
L41090 21670
L41000 21670
L40920 21700
L40860 21760
L40830 21810
L40800 21930
L40800 22010
L40830 22130
L40860 22190
L40920 22240
L41000 22270
L41060 22270
L41150 22240
L41180 22210
L41180 22010
L41060 22010
" />
<path d="M41290 22330
L41750 22330
" />
<path d="M41890 21870
L41890 22270
" />
<path d="M41890 21930
L41920 21900
L41980 21870
L42060 21870
L42120 21900
L42150 21960
L42150 22270
" />
<path d="M42780 22270
L42580 21990
" />
<path d="M42430 22270
L42430 21670
L42660 21670
L42720 21700
L42750 21730
L42780 21790
L42780 21870
L42750 21930
L42720 21960
L42660 21990
L42430 21990
" />
<path d="M43000 22240
L43090 22270
L43230 22270
L43290 22240
L43320 22210
L43350 22160
L43350 22100
L43320 22040
L43290 22010
L43230 21990
L43120 21960
L43060 21930
L43030 21900
L43000 21840
L43000 21790
L43030 21730
L43060 21700
L43120 21670
L43260 21670
L43350 21700
" />
<path d="M43520 21670
L43860 21670
" />
<path d="M43690 22270
L43690 21670
" />
</g>
<g style="fill:#848400; fill-opacity:0.0; 
stroke:#848400; stroke-width:100; stroke-opacity:1; 
stroke-linecap:round; stroke-linejoin:round;">
<polyline fill="none;"
points="38500,22000
38800,22300
39100,22300
39100,21700
38800,21700
38500,22000
" /> 
</g>
<g style="fill:#848400; fill-opacity:0.0; 
stroke:#848400; stroke-width:60; stroke-opacity:1; 
stroke-linecap:round; stroke-linejoin:round;">
<path d="M39400 24270
L39400 23670
L39550 23670
L39630 23700
L39690 23760
L39720 23810
L39750 23930
L39750 24010
L39720 24130
L39690 24190
L39630 24240
L39550 24270
L39400 24270
" />
<path d="M40350 24210
L40320 24240
L40230 24270
L40170 24270
L40090 24240
L40030 24190
L40000 24130
L39970 24010
L39970 23930
L40000 23810
L40030 23760
L40090 23700
L40170 23670
L40230 23670
L40320 23700
L40350 23730
" />
<path d="M40460 24330
L40920 24330
" />
<path d="M41060 24270
L41060 23670
" />
<path d="M41350 24270
L41350 23670
L41700 24270
L41700 23670
" />
</g>
<g style="fill:#848400; fill-opacity:0.0; 
stroke:#848400; stroke-width:100; stroke-opacity:1; 
stroke-linecap:round; stroke-linejoin:round;">
<polyline fill="none;"
points="38500,24000
38800,24300
39100,24300
39100,23700
38800,23700
38500,24000
" /> 
</g>
<g style="fill:#848400; fill-opacity:0.0; 
stroke:#848400; stroke-width:60; stroke-opacity:1; 
stroke-linecap:round; stroke-linejoin:round;">
<path d="M49040 24460
L49240 24460
" />
<path d="M49330 24770
L49040 24770
L49040 24170
L49330 24170
" />
<path d="M49580 24770
L49580 24170
L49930 24770
L49930 24170
" />
<path d="M50210 24460
L50410 24460
" />
<path d="M50500 24770
L50210 24770
L50210 24170
L50500 24170
" />
<path d="M50670 24170
L51010 24170
" />
<path d="M50840 24770
L50840 24170
" />
<path d="M51070 24830
L51530 24830
" />
<path d="M51670 24770
L51670 24170
L51870 24600
L52070 24170
L52070 24770
" />
<path d="M52360 24770
L52360 24170
L52510 24170
L52590 24200
L52650 24260
L52680 24310
L52710 24430
L52710 24510
L52680 24630
L52650 24690
L52590 24740
L52510 24770
L52360 24770
" />
<path d="M52960 24770
L52960 24170
" />
<path d="M53370 24170
L53480 24170
L53540 24200
L53600 24260
L53620 24370
L53620 24570
L53600 24690
L53540 24740
L53480 24770
L53370 24770
L53310 24740
L53250 24690
L53220 24570
L53220 24370
L53250 24260
L53310 24200
L53370 24170
" />
</g>
<g style="fill:#848400; fill-opacity:0.0; 
stroke:#848400; stroke-width:100; stroke-opacity:1; 
stroke-linecap:round; stroke-linejoin:round;">
<polyline fill="none;"
points="54500,24500
54200,24200
53900,24500
54200,24800
54500,24500
" /> 
</g>
<g style="fill:#848400; fill-opacity:0.0; 
stroke:#848400; stroke-width:60; stroke-opacity:1; 
stroke-linecap:round; stroke-linejoin:round;">
<path d="M49360 23460
L49560 23460
" />
<path d="M49650 23770
L49360 23770
L49360 23170
L49650 23170
" />
<path d="M49900 23770
L49900 23170
L50250 23770
L50250 23170
" />
<path d="M50530 23460
L50730 23460
" />
<path d="M50820 23770
L50530 23770
L50530 23170
L50820 23170
" />
<path d="M50990 23170
L51330 23170
" />
<path d="M51160 23770
L51160 23170
" />
<path d="M51390 23830
L51850 23830
" />
<path d="M51990 23770
L51990 23170
L52190 23600
L52390 23170
L52390 23770
" />
<path d="M52680 23770
L52680 23170
L52830 23170
L52910 23200
L52970 23260
L53000 23310
L53030 23430
L53030 23510
L53000 23630
L52970 23690
L52910 23740
L52830 23770
L52680 23770
" />
<path d="M53630 23710
L53600 23740
L53510 23770
L53450 23770
L53370 23740
L53310 23690
L53280 23630
L53250 23510
L53250 23430
L53280 23310
L53310 23260
L53370 23200
L53450 23170
L53510 23170
L53600 23200
L53630 23230
" />
</g>
<g style="fill:#848400; fill-opacity:0.0; 
stroke:#848400; stroke-width:100; stroke-opacity:1; 
stroke-linecap:round; stroke-linejoin:round;">
<polyline fill="none;"
points="53900,23500
54200,23800
54500,23800
54500,23200
54200,23200
53900,23500
" /> 
</g>
<g style="fill:#848400; fill-opacity:0.0; 
stroke:#848400; stroke-width:60; stroke-opacity:1; 
stroke-linecap:round; stroke-linejoin:round;">
<path d="M49860 32270
L49660 31990
" />
<path d="M49510 32270
L49510 31670
L49740 31670
L49800 31700
L49830 31730
L49860 31790
L49860 31870
L49830 31930
L49800 31960
L49740 31990
L49510 31990
" />
<path d="M50080 32240
L50170 32270
L50310 32270
L50370 32240
L50400 32210
L50430 32160
L50430 32100
L50400 32040
L50370 32010
L50310 31990
L50200 31960
L50140 31930
L50110 31900
L50080 31840
L50080 31790
L50110 31730
L50140 31700
L50200 31670
L50340 31670
L50430 31700
" />
<path d="M50940 31870
L50940 32270
" />
<path d="M50800 31640
L50650 32070
L51030 32070
" />
<path d="M51340 31930
L51280 31900
L51250 31870
L51220 31810
L51220 31790
L51250 31730
L51280 31700
L51340 31670
L51450 31670
L51510 31700
L51540 31730
L51570 31790
L51570 31810
L51540 31870
L51510 31900
L51450 31930
L51340 31930
L51280 31960
L51250 31990
L51220 32040
L51220 32160
L51250 32210
L51280 32240
L51340 32270
L51450 32270
L51510 32240
L51540 32210
L51570 32160
L51570 32040
L51540 31990
L51510 31960
L51450 31930
" />
<path d="M52110 31670
L51820 31670
L51790 31960
L51820 31930
L51880 31900
L52020 31900
L52080 31930
L52110 31960
L52140 32010
L52140 32160
L52110 32210
L52080 32240
L52020 32270
L51880 32270
L51820 32240
L51790 32210
" />
<path d="M52250 32330
L52710 32330
" />
<path d="M52770 31670
L53110 31670
" />
<path d="M52940 32270
L52940 31670
" />
<path d="M53260 31670
L53660 32270
" />
<path d="M53660 31670
L53260 32270
" />
</g>
<g style="fill:#848400; fill-opacity:0.0; 
stroke:#848400; stroke-width:100; stroke-opacity:1; 
stroke-linecap:round; stroke-linejoin:round;">
<polyline fill="none;"
points="53900,32000
54200,32300
54500,32300
54500,31700
54200,31700
53900,32000
" /> 
</g>
<g style="fill:#848400; fill-opacity:0.0; 
stroke:#848400; stroke-width:60; stroke-opacity:1; 
stroke-linecap:round; stroke-linejoin:round;">
<path d="M49720 31270
L49520 30990
" />
<path d="M49370 31270
L49370 30670
L49600 30670
L49660 30700
L49690 30730
L49720 30790
L49720 30870
L49690 30930
L49660 30960
L49600 30990
L49370 30990
" />
<path d="M49940 31240
L50030 31270
L50170 31270
L50230 31240
L50260 31210
L50290 31160
L50290 31100
L50260 31040
L50230 31010
L50170 30990
L50060 30960
L50000 30930
L49970 30900
L49940 30840
L49940 30790
L49970 30730
L50000 30700
L50060 30670
L50200 30670
L50290 30700
" />
<path d="M50800 30870
L50800 31270
" />
<path d="M50660 30640
L50510 31070
L50890 31070
" />
<path d="M51200 30930
L51140 30900
L51110 30870
L51080 30810
L51080 30790
L51110 30730
L51140 30700
L51200 30670
L51310 30670
L51370 30700
L51400 30730
L51430 30790
L51430 30810
L51400 30870
L51370 30900
L51310 30930
L51200 30930
L51140 30960
L51110 30990
L51080 31040
L51080 31160
L51110 31210
L51140 31240
L51200 31270
L51310 31270
L51370 31240
L51400 31210
L51430 31160
L51430 31040
L51400 30990
L51370 30960
L51310 30930
" />
<path d="M51970 30670
L51680 30670
L51650 30960
L51680 30930
L51740 30900
L51880 30900
L51940 30930
L51970 30960
L52000 31010
L52000 31160
L51970 31210
L51940 31240
L51880 31270
L51740 31270
L51680 31240
L51650 31210
" />
<path d="M52110 31330
L52570 31330
" />
<path d="M53060 31270
L52860 30990
" />
<path d="M52710 31270
L52710 30670
L52940 30670
L53000 30700
L53030 30730
L53060 30790
L53060 30870
L53030 30930
L53000 30960
L52940 30990
L52710 30990
" />
<path d="M53260 30670
L53660 31270
" />
<path d="M53660 30670
L53260 31270
" />
</g>
<g style="fill:#848400; fill-opacity:0.0; 
stroke:#848400; stroke-width:100; stroke-opacity:1; 
stroke-linecap:round; stroke-linejoin:round;">
<polyline fill="none;"
points="54500,31000
54200,30700
53900,30700
53900,31300
54200,31300
54500,31000
" /> 
</g>
<g style="fill:#848400; fill-opacity:0.0; 
stroke:#848400; stroke-width:60; stroke-opacity:1; 
stroke-linecap:round; stroke-linejoin:round;">
<path d="M49750 29770
L49550 29490
" />
<path d="M49400 29770
L49400 29170
L49630 29170
L49690 29200
L49720 29230
L49750 29290
L49750 29370
L49720 29430
L49690 29460
L49630 29490
L49400 29490
" />
<path d="M49970 29740
L50060 29770
L50200 29770
L50260 29740
L50290 29710
L50320 29660
L50320 29600
L50290 29540
L50260 29510
L50200 29490
L50090 29460
L50030 29430
L50000 29400
L49970 29340
L49970 29290
L50000 29230
L50030 29200
L50090 29170
L50230 29170
L50320 29200
" />
<path d="M50830 29370
L50830 29770
" />
<path d="M50690 29140
L50540 29570
L50920 29570
" />
<path d="M51230 29430
L51170 29400
L51140 29370
L51110 29310
L51110 29290
L51140 29230
L51170 29200
L51230 29170
L51340 29170
L51400 29200
L51430 29230
L51460 29290
L51460 29310
L51430 29370
L51400 29400
L51340 29430
L51230 29430
L51170 29460
L51140 29490
L51110 29540
L51110 29660
L51140 29710
L51170 29740
L51230 29770
L51340 29770
L51400 29740
L51430 29710
L51460 29660
L51460 29540
L51430 29490
L51400 29460
L51340 29430
" />
<path d="M52000 29170
L51710 29170
L51680 29460
L51710 29430
L51770 29400
L51910 29400
L51970 29430
L52000 29460
L52030 29510
L52030 29660
L52000 29710
L51970 29740
L51910 29770
L51770 29770
L51710 29740
L51680 29710
" />
<path d="M52140 29830
L52600 29830
" />
<path d="M52740 29770
L52740 29170
L52890 29170
L52970 29200
L53030 29260
L53060 29310
L53090 29430
L53090 29510
L53060 29630
L53030 29690
L52970 29740
L52890 29770
L52740 29770
" />
<path d="M53340 29460
L53540 29460
" />
<path d="M53630 29770
L53340 29770
L53340 29170
L53630 29170
" />
</g>
<g style="fill:#848400; fill-opacity:0.0; 
stroke:#848400; stroke-width:100; stroke-opacity:1; 
stroke-linecap:round; stroke-linejoin:round;">
<polyline fill="none;"
points="53900,29500
54200,29800
54500,29800
54500,29200
54200,29200
53900,29500
" /> 
</g>
<g style="fill:#848400; fill-opacity:0.0; 
stroke:#848400; stroke-width:60; stroke-opacity:1; 
stroke-linecap:round; stroke-linejoin:round;">
<path d="M50400 26210
L50370 26240
L50280 26270
L50220 26270
L50140 26240
L50080 26190
L50050 26130
L50020 26010
L50020 25930
L50050 25810
L50080 25760
L50140 25700
L50220 25670
L50280 25670
L50370 25700
L50400 25730
" />
<path d="M50620 26100
L50910 26100
" />
<path d="M50570 26270
L50770 25670
L50970 26270
" />
<path d="M51160 26270
L51160 25670
L51510 26270
L51510 25670
" />
<path d="M51650 26330
L52110 26330
" />
<path d="M52170 25670
L52510 25670
" />
<path d="M52340 26270
L52340 25670
" />
<path d="M52660 25670
L53060 26270
" />
<path d="M53060 25670
L52660 26270
" />
<path d="M53280 26270
L53280 25670
L53430 25670
L53510 25700
L53570 25760
L53600 25810
L53630 25930
L53630 26010
L53600 26130
L53570 26190
L53510 26240
L53430 26270
L53280 26270
" />
</g>
<g style="fill:#848400; fill-opacity:0.0; 
stroke:#848400; stroke-width:100; stroke-opacity:1; 
stroke-linecap:round; stroke-linejoin:round;">
<polyline fill="none;"
points="53900,26000
54200,26300
54500,26300
54500,25700
54200,25700
53900,26000
" /> 
</g>
<g style="fill:#848400; fill-opacity:0.0; 
stroke:#848400; stroke-width:60; stroke-opacity:1; 
stroke-linecap:round; stroke-linejoin:round;">
<path d="M50260 27210
L50230 27240
L50140 27270
L50080 27270
L50000 27240
L49940 27190
L49910 27130
L49880 27010
L49880 26930
L49910 26810
L49940 26760
L50000 26700
L50080 26670
L50140 26670
L50230 26700
L50260 26730
" />
<path d="M50480 27100
L50770 27100
" />
<path d="M50430 27270
L50630 26670
L50830 27270
" />
<path d="M51020 27270
L51020 26670
L51370 27270
L51370 26670
" />
<path d="M51510 27330
L51970 27330
" />
<path d="M52460 27270
L52260 26990
" />
<path d="M52110 27270
L52110 26670
L52340 26670
L52400 26700
L52430 26730
L52460 26790
L52460 26870
L52430 26930
L52400 26960
L52340 26990
L52110 26990
" />
<path d="M52660 26670
L53060 27270
" />
<path d="M53060 26670
L52660 27270
" />
<path d="M53280 27270
L53280 26670
L53430 26670
L53510 26700
L53570 26760
L53600 26810
L53630 26930
L53630 27010
L53600 27130
L53570 27190
L53510 27240
L53430 27270
L53280 27270
" />
</g>
<g style="fill:#848400; fill-opacity:0.0; 
stroke:#848400; stroke-width:100; stroke-opacity:1; 
stroke-linecap:round; stroke-linejoin:round;">
<polyline fill="none;"
points="54500,27000
54200,26700
53900,26700
53900,27300
54200,27300
54500,27000
" /> 
</g>
<g style="fill:#848400; fill-opacity:0.0; 
stroke:#848400; stroke-width:60; stroke-opacity:1; 
stroke-linecap:round; stroke-linejoin:round;">
</g>
<g style="fill:#008400; fill-opacity:0.0; 
stroke:#008400; stroke-width:60; stroke-opacity:1; 
stroke-linecap:round; stroke-linejoin:round;">
<path d="M54500 23500
L62000 23500
" />
<path d="M62000 24500
L54500 24500
" />
<path d="M54500 31000
L62000 31000
" />
<path d="M62000 32000
L54500 32000
" />
<path d="M62000 29500
L54500 29500
" />
<path d="M62000 28500
L58500 28500
" />
</g>
<g style="fill:#000084; fill-opacity:0.0; 
stroke:#000084; stroke-width:60; stroke-opacity:1; 
stroke-linecap:round; stroke-linejoin:round;">
<path d="M58260 28260
L58740 28740
" />
<path d="M58740 28260
L58260 28740
" />
</g>
<g style="fill:#008400; fill-opacity:0.0; 
stroke:#008400; stroke-width:60; stroke-opacity:1; 
stroke-linecap:round; stroke-linejoin:round;">
<path d="M54500 27000
L62000 27000
" />
<path d="M62000 26000
L54500 26000
" />
<path d="M29500 23000
L31500 23000
" />
</g>
<g style="fill:#000084; fill-opacity:0.0; 
stroke:#000084; stroke-width:60; stroke-opacity:1; 
stroke-linecap:round; stroke-linejoin:round;">
<path d="M31260 22760
L31740 23240
" />
<path d="M31740 22760
L31260 23240
" />
</g> 
</svg>
