<?xml version="1.0" encoding="UTF-8" standalone="no"?>
<!-- Created with Inkscape (http://www.inkscape.org/) -->

<svg
   xmlns:dc="http://purl.org/dc/elements/1.1/"
   xmlns:cc="http://creativecommons.org/ns#"
   xmlns:rdf="http://www.w3.org/1999/02/22-rdf-syntax-ns#"
   xmlns:svg="http://www.w3.org/2000/svg"
   xmlns="http://www.w3.org/2000/svg"
   xmlns:sodipodi="http://sodipodi.sourceforge.net/DTD/sodipodi-0.dtd"
   xmlns:inkscape="http://www.inkscape.org/namespaces/inkscape"
   width="1024"
   height="1024"
   viewBox="0 0 1024 1024"
   id="svg2"
   version="1.1"
   inkscape:version="0.91 r13725"
   sodipodi:docname="logo.svg"
   inkscape:export-filename="/home/martin/Proyectos/git/martinribelotta/imxrt1020-module/doc/logo.png"
   inkscape:export-xdpi="90"
   inkscape:export-ydpi="90">
  <defs
     id="defs4" />
  <sodipodi:namedview
     id="base"
     pagecolor="#ffffff"
     bordercolor="#666666"
     borderopacity="1.0"
     inkscape:pageopacity="0.0"
     inkscape:pageshadow="2"
     inkscape:zoom="0.24804688"
     inkscape:cx="170.61237"
     inkscape:cy="494.82985"
     inkscape:document-units="px"
     inkscape:current-layer="layer1"
     showgrid="false"
     units="px"
     inkscape:window-width="1366"
     inkscape:window-height="703"
     inkscape:window-x="0"
     inkscape:window-y="0"
     inkscape:window-maximized="1" />
  <metadata
     id="metadata7">
    <rdf:RDF>
      <cc:Work
         rdf:about="">
        <dc:format>image/svg+xml</dc:format>
        <dc:type
           rdf:resource="http://purl.org/dc/dcmitype/StillImage" />
        <dc:title />
      </cc:Work>
    </rdf:RDF>
  </metadata>
  <g
     inkscape:label="Capa 1"
     inkscape:groupmode="layer"
     id="layer1"
     transform="translate(0,-28.362161)">
    <path
       style="fill:#004455;fill-opacity:1;stroke:none;stroke-width:40;stroke-linecap:butt;stroke-linejoin:miter;stroke-miterlimit:4;stroke-dasharray:none;stroke-opacity:1"
       d="M 519.94249,836.14244 A 491.88385,341.31201 0 0 1 48.129887,590.53983 566.00337,339.44694 0 0 0 519.94249,742.88985 a 566.00337,339.44694 0 0 0 471.83,-152.3175 491.88385,341.31201 0 0 1 -471.83,245.57009 z"
       id="path4225"
       inkscape:connector-curvature="0" />
    <g
       id="g4158"
       transform="translate(5.7013967,-5.7013882)">
      <g
         transform="matrix(0.69952129,0,0,0.69952129,22.131416,168.67945)"
         id="g4210">
        <path
           style="fill:#004455;fill-opacity:1;stroke:#4d4d4d;stroke-width:1.5;stroke-linecap:round;stroke-miterlimit:4;stroke-dasharray:none;stroke-opacity:1"
           d="M 247.93639,105.71059 A 207.62204,207.62204 0 0 0 40.315298,313.33363 207.62204,207.62204 0 0 0 247.93639,520.95473 207.62204,207.62204 0 0 0 391.20007,463.27113 l -55.27539,-31.91211 a 147.36726,147.36726 0 0 1 -87.98829,29.3418 147.36726,147.36726 0 0 1 -147.36718,-147.36719 147.36726,147.36726 0 0 1 147.36718,-147.36718 147.36726,147.36726 0 0 1 96.77344,36.36328 l 54.11524,-31.24219 A 207.62204,207.62204 0 0 0 247.93639,105.71059 Z"
           id="path4136"
           inkscape:connector-curvature="0" />
        <rect
           style="fill:#004455;fill-opacity:1;stroke:#4d4d4d;stroke-width:1.30362737;stroke-linecap:round;stroke-miterlimit:4;stroke-dasharray:none;stroke-opacity:1"
           id="rect4144"
           width="60.871407"
           height="411.40897"
           x="445.28082"
           y="105.6124" />
        <path
           style="fill:#004455;fill-opacity:1;stroke:#4d4d4d;stroke-width:1.12605214;stroke-linecap:round;stroke-miterlimit:4;stroke-dasharray:none;stroke-opacity:1"
           d="m 691.40211,106.60925 -75.43555,207.61133 -75.43554,207.61328 60.58203,0 12.83789,-35.33398 75.43555,-207.61328 75.43359,207.61328 12.83789,35.33398 64.61328,0 -75.43359,-207.61328 -75.43555,-207.61133 z"
           id="path4146"
           inkscape:connector-curvature="0" />
        <path
           style="fill:#004455;fill-opacity:1;stroke:#4d4d4d;stroke-width:1.12605214;stroke-linecap:round;stroke-miterlimit:4;stroke-dasharray:none;stroke-opacity:1"
           d="m 820.87576,106.60926 -32.17578,88.55467 38.95312,107.20703 75.4336,207.61329 -0.25977,0 4.30469,11.8496 64.6133,0 -75.43362,-207.61328 z"
           id="path4146-7"
           inkscape:connector-curvature="0"
           sodipodi:nodetypes="ccccccccc" />
      </g>
      <rect
         transform="matrix(0,-1,1,0,0,0)"
         style="fill:#004455;fill-opacity:1;stroke:#4d4d4d;stroke-width:0.47281155;stroke-linecap:round;stroke-miterlimit:4;stroke-dasharray:none;stroke-opacity:1"
         id="rect4144-5"
         width="43.019951"
         height="76.574883"
         x="-427.87088"
         y="709.96448" />
      <path
         inkscape:connector-curvature="0"
         id="path4284"
         d="m 785.18659,243.71958 0,41.59977 122.14151,0 -88.73619,153.69654 0,96.02079 168.19189,-291.3171 -201.59721,0 z"
         style="fill:#004455;fill-opacity:1;stroke:none;stroke-width:40;stroke-linecap:butt;stroke-linejoin:miter;stroke-miterlimit:4;stroke-dasharray:none;stroke-opacity:1" />
    </g>
  </g>
</svg>
