M48
;DRILL file {KiCad 5.0.1-33cea8e~68~ubuntu18.04.1} date lun 26 nov 2018 22:09:08 -03
;FORMAT={-:-/ absolute / inch / decimal}
FMAT,2
INCH,TZ
T1C0.0118
T2C0.0197
T3C0.0236
T4C0.0276
T5C0.0335
T6C0.0350
T7C0.0354
T8C0.0394
T9C0.0433
T10C0.0630
T11C0.1063
T12C0.1280
%
G90
G05
M72
T1
X4.3106Y-4.1651
X4.3107Y-3.733
X4.364Y-3.2478
X4.4656Y-3.1818
X4.4656Y-3.2459
X4.4656Y-3.3115
X4.4656Y-3.4273
X4.5382Y-2.9194
X4.6307Y-3.4979
X4.7481Y-4.3568
X4.8214Y-3.4134
X4.8601Y-3.5551
X4.9081Y-3.497
X4.9103Y-4.4763
X4.9203Y-3.8041
X4.9294Y-3.8567
X4.9347Y-4.15
X4.9483Y-3.5156
X5.0095Y-4.4611
X5.0121Y-4.5113
X5.0296Y-2.881
X5.032Y-3.4966
X5.1233Y-3.8391
X5.1236Y-3.8869
X5.1239Y-4.3498
X5.1567Y-3.2442
X5.1567Y-3.3041
X5.1567Y-3.3627
X5.1567Y-3.4236
X5.1568Y-3.1753
X5.215Y-4.2696
X5.2402Y-3.4209
X5.2406Y-3.982
X5.2413Y-3.2811
X5.2424Y-4.3076
X5.2503Y-3.2486
X5.2785Y-3.3491
X5.3015Y-3.8779
X5.3019Y-3.8473
X5.315Y-3.2788
X5.3321Y-4.1498
X5.3511Y-3.4181
X5.3544Y-3.2504
X5.3841Y-4.0567
X5.3844Y-3.9921
X5.3853Y-3.9531
X5.395Y-3.3511
X5.3989Y-3.3246
X5.4402Y-3.2285
X5.444Y-3.4175
X5.4594Y-3.9695
X5.4667Y-3.6643
X5.4711Y-3.2291
X5.475Y-3.4183
X5.4789Y-3.7074
X5.5007Y-4.1268
X5.5007Y-4.1661
X5.5051Y-3.5182
X5.5092Y-3.5586
X5.5092Y-4.3083
X5.5099Y-4.3504
X5.5104Y-3.7409
X5.5111Y-3.5967
X5.5113Y-4.2683
X5.5127Y-3.8185
X5.5134Y-4.2283
X5.516Y-3.9672
X5.5164Y-4.0096
X5.5171Y-3.9253
X5.6608Y-4.5133
X5.7002Y-4.0454
X5.7009Y-3.8613
X5.7013Y-4.2446
X5.7014Y-4.0054
X5.7017Y-3.9748
X5.7019Y-3.6686
X5.7024Y-4.1171
X5.703Y-3.7044
X5.7058Y-3.7553
X5.7062Y-4.5145
X5.7114Y-3.6257
X5.7337Y-4.4064
X5.7379Y-4.5153
X5.7457Y-3.4459
X5.7565Y-4.5804
X5.7648Y-4.4067
X5.773Y-3.3467
X5.788Y-4.5836
X5.7954Y-4.4056
X5.8014Y-4.5506
X5.8244Y-3.5583
X5.8349Y-3.3675
X5.8841Y-3.3672
X5.9143Y-3.2166
X5.9439Y-4.5423
X5.9534Y-4.3027
X5.9583Y-3.1186
X5.9583Y-3.1186
X5.9589Y-2.9545
X5.9957Y-4.5325
X6.0028Y-4.2996
X6.0251Y-3.3602
X6.0501Y-3.0057
X6.0672Y-3.3611
X6.1133Y-4.4448
X6.1211Y-4.4759
X6.1916Y-2.9689
X6.2317Y-3.3761
X6.258Y-4.3001
X6.2636Y-4.5162
X6.2717Y-4.3986
X6.3077Y-4.5165
X6.3147Y-4.2993
X6.3181Y-3.4521
X6.3238Y-4.4098
X6.3265Y-3.5618
X6.3593Y-4.5168
X6.381Y-4.3019
X6.4007Y-4.1603
X6.4049Y-4.5159
X6.4348Y-4.4522
X6.4362Y-3.7922
X6.4384Y-4.1966
X6.4412Y-3.7478
X6.5074Y-4.4522
X6.5312Y-4.3327
X6.5378Y-4.2752
X6.5609Y-4.558
X6.5618Y-4.3304
X6.5793Y-4.5889
X6.5968Y-2.8842
X6.6213Y-4.3149
X6.6232Y-3.7714
X6.629Y-4.3751
X6.6307Y-3.5396
X6.6334Y-3.5812
X6.6372Y-4.2021
X6.6594Y-4.4872
X6.6667Y-4.3739
X6.6895Y-4.4928
X6.6935Y-2.9997
X6.7082Y-3.0424
X6.8542Y-4.656
X7.1024Y-4.7024
X7.2061Y-3.7488
X7.2299Y-4.0819
X7.2885Y-3.5696
X7.3563Y-3.7235
X7.6293Y-4.1874
X7.644Y-3.5415
X7.7011Y-3.6193
X7.7071Y-4.2636
X7.7962Y-4.1815
X7.7968Y-3.5372
X7.8905Y-3.6224
X7.891Y-4.2681
X7.9581Y-3.5682
X7.986Y-4.182
X8.0475Y-4.183
X8.0503Y-3.5411
X8.1855Y-4.502
X8.2008Y-4.4023
X8.2174Y-4.4886
X8.235Y-4.3139
X8.2497Y-4.363
X8.2497Y-4.4393
X8.2682Y-4.1991
X8.3626Y-3.783
X8.3643Y-4.5623
X8.4107Y-4.6348
X8.4152Y-4.6717
X8.4297Y-4.3982
X8.4448Y-3.8093
X8.4771Y-4.4941
X8.5003Y-4.0156
X8.5019Y-4.6388
X8.5019Y-4.69
X8.502Y-3.9143
X8.502Y-3.9143
X8.502Y-3.9641
X8.5034Y-3.8566
X8.5061Y-4.0713
X8.5175Y-4.4695
X8.5484Y-4.4626
X8.5531Y-4.6388
X8.5531Y-4.69
X8.5841Y-4.8622
X8.5878Y-3.8329
X8.5935Y-4.5349
X8.6016Y-4.3617
X8.6016Y-4.4402
X8.6131Y-4.4862
X8.6185Y-4.763
X8.6436Y-4.3982
X8.6437Y-4.6976
X8.6662Y-3.9886
X8.6662Y-4.0409
X8.6664Y-3.8886
X8.6664Y-3.939
X8.6791Y-4.4392
X8.6815Y-4.5345
X8.7318Y-4.6602
X8.7429Y-4.8349
X8.7458Y-4.7394
X8.9698Y-4.549
X8.9861Y-3.5582
X9.0275Y-4.676
X9.0436Y-4.8432
X9.0693Y-4.5634
X9.1486Y-4.607
X9.1518Y-4.6756
X9.1883Y-4.5308
X9.3125Y-4.6707
T2
X4.2926Y-2.9246
X4.316Y-2.8682
X4.316Y-2.9809
X4.3723Y-2.8448
X4.3723Y-3.0043
X4.4287Y-2.8682
X4.4287Y-2.9809
X4.4521Y-2.9246
X9.395Y-4.9561
X9.4183Y-4.8997
X9.4183Y-5.0124
X9.4747Y-4.8763
X9.4747Y-5.0358
X9.5311Y-4.8997
X9.5311Y-5.0124
X9.5544Y-4.9561
X9.395Y-2.9246
X9.4183Y-2.8682
X9.4183Y-2.9809
X9.4747Y-2.8448
X9.4747Y-3.0043
X9.5311Y-2.8682
X9.5311Y-2.9809
X9.5544Y-2.9246
X4.2926Y-4.9521
X4.316Y-4.8957
X4.316Y-5.0085
X4.3723Y-4.8724
X4.3723Y-5.0318
X4.4287Y-4.8957
X4.4287Y-5.0085
X4.4521Y-4.9521
T4
X6.0558Y-3.1103
T5
X9.0356Y-4.9208
X9.2324Y-4.9208
X4.5641Y-4.9215
X4.7609Y-4.9215
T6
X8.7373Y-2.9218
X8.8373Y-2.862
X9.1353Y-2.9218
X9.2353Y-2.862
T7
X8.8111Y-3.4045
X8.8611Y-3.3045
X8.9111Y-3.4045
X8.9611Y-3.3045
X9.0111Y-3.4045
X9.0615Y-3.3045
X9.1115Y-3.4045
X9.1615Y-3.3045
T8
X7.6122Y-2.9376
X7.6122Y-3.0376
X7.7122Y-2.9376
X7.7122Y-3.0376
X7.8122Y-2.9376
X7.8122Y-3.0376
X7.9122Y-2.9376
X7.9122Y-3.0376
X8.0122Y-2.9376
X8.0122Y-3.0376
X8.1122Y-2.9376
X8.1122Y-3.0376
X8.279Y-3.6491
X8.379Y-3.6491
X4.6377Y-4.6033
X4.6377Y-4.7033
X4.7377Y-4.6033
X4.7377Y-4.7033
X4.8377Y-4.6033
X4.8377Y-4.7033
X4.9377Y-4.9083
X4.9377Y-5.0083
X5.0377Y-4.9083
X5.0377Y-5.0083
X5.1377Y-4.9083
X5.1377Y-5.0083
X5.2377Y-4.9083
X5.2377Y-5.0083
X5.3377Y-4.9083
X5.3377Y-5.0083
X5.4377Y-4.9083
X5.4377Y-5.0083
X5.5377Y-4.9083
X5.5377Y-5.0083
X5.6377Y-4.9083
X5.6377Y-5.0083
X5.7377Y-4.9083
X5.7377Y-5.0083
X5.8377Y-4.9083
X5.8377Y-5.0083
X5.9377Y-4.9083
X5.9377Y-5.0083
X6.0377Y-4.9083
X6.0377Y-5.0083
X6.1377Y-4.9083
X6.1377Y-5.0083
X6.2377Y-4.9083
X6.2377Y-5.0083
X6.3377Y-4.9083
X6.3377Y-5.0083
X6.4377Y-4.9083
X6.4377Y-5.0083
X6.5377Y-4.9083
X6.5377Y-5.0083
X6.6377Y-4.9083
X6.6377Y-5.0083
X6.7377Y-4.9083
X6.7377Y-5.0083
X6.8377Y-4.9083
X6.8377Y-5.0083
X8.8602Y-3.6718
X8.8602Y-3.7718
X8.8602Y-3.8718
X8.8602Y-3.9718
X8.8602Y-4.0718
X8.8602Y-4.1718
X8.8602Y-4.2718
T9
X5.1953Y-2.9518
X5.2953Y-2.9518
X5.3953Y-2.9518
X5.4953Y-2.9518
X5.5953Y-2.9518
X5.6953Y-2.9518
T10
X8.6802Y-3.175
X9.2924Y-3.175
T11
X4.3723Y-2.9246
X9.4747Y-4.9561
X9.4747Y-2.9246
X4.3723Y-4.9521
T12
X8.7613Y-3.0549
X9.2113Y-3.0549
T3
X8.9962Y-5.0409G85X8.9962Y-5.0133
G05
X9.2718Y-5.0133G85X9.2718Y-5.0409
G05
X4.5247Y-5.0416G85X4.5247Y-5.014
G05
X4.8003Y-5.014G85X4.8003Y-5.0416
G05
T0
M30
